<?xml version="1.0" encoding="UTF-8"?>
<svg id="Capa_1" xmlns="http://www.w3.org/2000/svg" version="1.1" viewBox="0 0 654.16 1102.6">
  <!-- Generator: Adobe Illustrator 29.6.1, SVG Export Plug-In . SVG Version: 2.1.1 Build 9)  -->
  <defs>
    <style>
      .st0 {
        fill: #fff;
      }

      .st1 {
        fill: #ff1937;
      }
    </style>
  </defs>
  <path class="st1" d="M32.44,522.04c18.88-36.53,54.2-38.24,66.75-86.14,7.21-27.51,7.58-51.69,19.65-79.18,10.56-24.04,21.85-43.9,36.66-59.7h-.01c8.69-8.95,18.58-16.82,29.4-23.45-5.22-27.67-8.78-56.47-8.78-83.57,0-101.35,49.83-152.68,49.83-152.68v218.41c24.01-6.72,50.29-8.27,77.03-3.55,42.51,7.51,78.38,29.58,102.47,59.45-9.36-38.19-17.07-81.76-17.07-121.64,0-101.35,49.83-152.68,49.83-152.68v676.49l-.16,26.44c24.56,1.37,50.35,4.04,74.8,10.15l-.06.03c.89.2,1.77.42,2.65.64,3.36.88,6.69,1.82,9.99,2.84,61.83,19.88,106.58,77.87,106.58,146.32,0,1.37-.03,2.74-.06,4.11-.14,1.61-.2,3.38-.22,5.21v.02h0c-.05,6.36.46,13.38.23,16.2-3.14,39.85-19.92,145.44-76.86,138.46-24.05-2.95-39.42-31.18-47.1-51.76-2.32-6.21-5.02-26.56-10.76-27.94-.75,22.19-5.5,57.38-17.69,69.83-32.71,33.38-61.6-16.05-75.02-65.99l-1.71.07c-4.52,31.43-32.37,95.9-73.57,70.39-24.5-15.17-32.64-53.98-39.44-79.9-.43-.14-.85-.3-1.28-.44-10.58,39.3-39.54,104.89-74.02,82.12-47.57-31.42-37.48-190.18-37.48-231.81l.7-93.59c.04-11.84-7.08-22.58-18.07-26.98-20.9-8.35-40.82-18.59-58.94-30.61C50.52,644.34-.19,585.21,32.46,522.04h-.02Z"/>
  <g>
    <path class="st0" d="M252.69,457.95h70.52c-26.46,26.46-60.31,41.01-94.91,43.66,14.18-6.19,24.39-23.39,24.39-43.66Z"/>
    <path class="st0" d="M180.72,457.95c0,20.27,10.21,37.48,24.39,43.66-34.6-2.65-68.45-17.2-94.91-43.66h70.52Z"/>
  </g>
  <polygon points="72.91 457.95 360.5 457.95 341.85 440.59 360.5 423.22 72.91 423.22 91.56 440.59 72.91 457.95"/>
  <path d="M180.72,457.95c0,20.27,10.21,37.48,24.39,43.66h23.19c14.18-6.19,24.39-23.39,24.39-43.66h-71.97Z"/>
</svg>