<?xml version="1.0" encoding="UTF-8"?>
<svg id="Capa_1" xmlns="http://www.w3.org/2000/svg" version="1.1" viewBox="0 0 637.48 472.86">
  <!-- Generator: Adobe Illustrator 29.6.1, SVG Export Plug-In . SVG Version: 2.1.1 Build 9)  -->
  <defs>
    <style>
      .st0 {
        fill: #100a07;
      }

      .st1 {
        fill: #c55c0f;
      }

      .st2 {
        fill: #fcfcfb;
      }

      .st3 {
        fill: #ef8f20;
      }

      .st4 {
        fill: #f7cb1b;
      }
    </style>
  </defs>
  <path class="st0" d="M402.42,467.19c-6.39,2.91-9.33,6.95-17.19,5.28-10.61-2.25-14.47-18.28-18.26-19.88-6.59-2.78-22.57,7.78-25.25-7.04-2.11-11.67,4.85-19.24,7.39-29.76-16.85,5.63-32.22,7.59-49.94,5.69-2.85-.31-13.83-3.1-15.1-2.74-.77.22-5.05,7.21-5.21,8.18-.56,3.58,1.41,11.6.7,16.85s-4.51,10.21-10.16,10.85c-8.3.94-15.9-8.38-18.8-8.39s-8.32,13.34-20.9,12.4c-14.94-1.11-17.34-22.78-22.39-25.26-4.9-2.42-11.4,5.78-20.32.35-5.25-3.2-6.12-9.69-5.15-15.34s10.06-16.68,9.35-20.04c-.13-.6-4.14-2.53-5.28-3.53-1.77-1.54-6.38-7.05-7.85-7.45-2.49-.67-19.98,6.43-24.28,7.73-41.05,12.38-87.19,21.44-126.28-1.76-35.34-20.98-36.63-52.37-3.8-76.93,2.94-2.2,16.42-9.55,16.82-11.61.35-1.84-1.81-7.41-1.58-11.17.31-5.08,5.78-15.08,5.47-17.06-.18-1.14-7.65-11.05-9.23-14.63-12.76-28.81-.3-63.16,28.72-75.7,3.78-1.63,17.78-4.19,18.5-4.81.54-.46,4.16-10.6,5.54-13.02,5.76-10.14,18-18.36,29.69-19.8,4.5-.55,18.53,1.06,20.21.22,1.18-.59,6.42-8.26,8.07-10.02,23.92-25.54,50.91-38.67,85.15-45.24,30.82-28.53,61.34-57.26,89.5-88.47,25.7-20.25,39.69,25.44,51.08,40.3,14.8,3.05,35.48-10.05,49.11-7.24,12.79,2.64,11.89,27.42,11.15,37.36-.38,5.02-5.09,22.33-3.33,25.25.64,1.06,19.69,7.81,23.02,9.33,13.08,5.99,31.01,13.13,26.51,30.65-2.64,10.29-13.25,19.76-17.5,28.18-3.37,6.68,3.21,10.81,6.34,16.24,11.03,19.16,3.18,38.81-17.93,44.58-.46,2.84,4.14,7.61,6.21,9.97,3.32,3.79,17.3,14.9,17.62,15.21,16.08,15.54,30.21,13.17,46.18-.93,7.5-6.62,60.34-72.87,70.61-74.99,13.81-2.86,16.6,10.49,19.3,20.72-.04.95.03,1.91,0,2.86-.13,4.39-1.4,14.18.52,17.09,2.56,3.88,16.01,9.24,20.87,13.38,3.19,2.71,4.79,5.28,7.16,8.54-.21,9.53.4,11.62-5.71,19.99-4.61,6.31-20.4,18.33-21.67,24.48-2.15,10.46,9.78,15.97,8.09,29.04-1.86,14.46-18.26,18.35-26.43,26.86-13.63,14.19,11.59,35.96-6.69,49.46-9.49,7.01-20.45,5.07-30.87,6.25-10.63,1.2-9.88,10.75-13.8,18.08-3.04,5.68-11.33,18.4-17.4,20.2-20.16,5.98-30.35-25.03-32.77-39.98-.99-6.14-.2-24.81-6.68-26.68-4.62-1.34-14.21,8.32-19.01,11.07-3.06,1.76-6.3,3.33-9.8,4.01-.37,2,1.77,2.74,2.7,4.42,4.4,7.91,4.65,15.99-1.27,23.17-1.82,2.21-8.71,6.7-8.9,7.28-2.48,7.53,3.05,16.69-4.92,25.54-9.38,10.42-21.05,1.58-28.32,4.99-3.86,1.81-7.14,11.85-11.12,14.62-.51.87-.49,1.8-.52,2.77l.03.03ZM344.36,18.93c-.71-6.33-7.34-11.48-13.57-10.27-6.01,1.17-20.27,19.74-25.43,25.04-20.35,20.93-41.66,40.8-62.83,60.89l13.32.47c2.16,2.4,3.39,6.22-.67,7.42-6.6,1.95-19.29-.93-27.88,1.14-1.02.25-1.8.93-1.9.95-2.89-.07-6.32-.25-8.57,1.9-24.27,5.8-44.46,16.54-61.88,34.72-2.48,2.58-12.89,17.13-13.94,17.49-2.93,1-8.81-1.48-12.22-1.75-18.34-1.47-33.04,7.25-36.63,25.68,2.89.09,6.78.26,9.52.96,10.68,2.72,18.86,9.49,27.17,16.23,5.67-1.99,10.34-5.79,16.09-7.71,24.98-8.3,51.89.33,68.69,19.96,22.04-19.05,48.75-25.38,75.22-10.57,17.26,9.66,26.5,24.73,29.82,43.94v8.57c0,3.48-.03,6.99,0,10.47-7.89,35.67-41.95,58.54-78.04,47.59-10.75-3.26-20.27-10.77-28.55-18.08-.33-.29-.16-3.33-2.35-2.84-.66.15-7.7,7.86-9.71,9.33-16.15,11.78-36.7,12.83-55.51,7.78-10.13-5.08-19.73-11.57-27.6-19.03-.21-.2-.12-1.82-.9-2.43-1.36-1.07-7.98,3.3-10.27,4.11-12.39,4.39-26.73,4.13-39.27.23-.94-.29-5.42-1.75-5.71-1.9-.23-.12-.65-1.48-1.38-1.91-2.01-1.17-3.84-2.61-5.77-3.8-1.3-.8-.34-1.28-1.9-.03-1.9,1.52-4.18,7.58-4.31,10.06-.33,6.16,3.53,11.05,3.43,16.62-20.72,9.46-56.42,34.71-36.67,60.41,15.77,20.53,43.38,27.27,68.02,29.13l16.66-1.99c41.89-2.19,74.96-22.15,113.48-33.56,14.55-4.31,29.66-7.16,44.51-10.22.45-4.99-8.14-8.55-4.83-13.62,3.12-4.79,9.08,3.58,11.58,5.45,10.61,7.93,27.31,2.31,40.55,10.84,3.36,2.17,14.92,12.94,7.22,15.25-5.35,1.6-6.22-3.95-9.29-6.52-14.76-12.36-51.41-2.33-69.02,1.92-15.87,3.83-32.15,8.06-46.64,15.72,7.63,12.3,29.78,14.85,39.02,3.31.8-.33,1.56-1.42,2.6-1.67,4.95-1.19,7.76,2.14,11.68,4.53,27.29,16.58,53.62,28.44,86.82,23.54,2.89-.43,23.6-5.54,24.42-6.5,2.15-2.48-2.55-12.66-3.87-15.48-.4-.87-1.7-1.44-1.74-1.55-1.52-4.44,2.44-8.56,6.95-5.76.56.35,3.03,4.26,3.59,5.23,1.44,2.48,2.28,5.55,2.78,8.14,4.34,22.33-4.73,22.81-8.14,38.96-3.41,16.15,5.69,7.32,14.33,7.58,12.48.37,14.58,18.64,22.09,20.87,8.81,2.61,16.76-19.22,23.51-22.71,8.55-4.42,16.84,3.35,24.31-1.43,4.75-3.04,3.86-7.98,3.84-12.81-.01-4.32-1.72-7.3.26-11.64,2.84-6.25,21.11-10.89,10.26-23.15-5.71-6.45-11.92-2.64-15.3-4.69-.96-.58-7.23-15.49-10.92-19.54-4.03-4.42-14.38-9.06-15.8-10.84-4.17-5.27,1.88-7.51,6.75-7.23l9.97,7.63c6.8,6,12.4,13.28,15.34,21.94,9.06-1.01,18.19-4.34,25.61-9.59,1.46-1.03,2.53-3.23,3.33-3.81,2.19-1.59,6.91-4.99,9.25-5.49,14.17-3.01,18.98,8.22,20.25,19.77,1.63,14.81,1.93,26.5,10.29,39.68,16.46,25.98,25.6-21.18,35.46-27.72,9.61-6.38,36.74.29,39.7-12.64,2.64-11.53-8.36-19.95-2.85-35.21,4.97-13.77,27.72-19.79,29.49-30.5,1.29-7.8-6.77-13.3-8.14-19.96-3.72-18.1,16.43-27.9,25.33-40.87,7.9-11.51-2.04-13.02-9.36-17.45-3.51-2.12-9.54-5.56-12.38-8.08s-3.58-3.55-4.75-7.15c.06-5.92.93-30.08-4.76-32.85-3.88-1.88-9.34,2.33-12.38,4.76-24.99,19.9-53.09,77.37-84.32,81.28-3.26.41-6.62-.06-9.89.1-25.39-7.37-53.63-40.66-65.21-63.75-4.89-9.75-7.77-20.44-12.65-30.18-15.08-30.06-42.31-49.84-72.05-64.05-1.89-10.89,7.37-5.56,12.86-2.87,23.25,11.38,49.39,32.57,62.36,55.18,7.64,13.33,11.99,29.05,19.33,42.53,1,1.84,5.13,9.07,6.28,9.89,7.36,5.29,21.55-6.23,23.17-14.08,3.46-16.8-13.09-22.68-12.18-34.98.87-11.68,25.33-30.05,18-41.79-2.96-4.74-25.32-13.44-31.3-15.81-.47-.19-1.42.18-1.9,0-.17-.06-.46-.77-.95-.95-7.46-2.77-13.82-4.2-16-13.1,2.82-15.46,5.63-28.21,3.63-44.01-.57-4.53,1.17-9.34-5.28-10.42-13.35,1.52-39.88,13.79-51.76,6.08-1.26-.82-1.82-2.3-2.91-3.27-3.6-6.23-6.11-13.11-9.7-19.33-1.91-3.3-5.12-8.95-8.38-10.18l-.03.05ZM79.58,190.5c-15.74,1.9-30.86,14.23-37.08,28.59-18.48,42.65,29.35,85.22,68.62,60.03-13.03-25.01-7.48-52.83,11.42-73.06-11.22-12.17-26.44-17.56-42.96-15.57h0ZM163.37,197.16c-36.06,1.27-60.94,39.01-47.59,72.72,14.53,36.67,64.15,45.65,89.51,14.86-1.4-5.44-4.49-10.2-5.85-15.71-4.38-17.7-.8-33.72,8.85-48.82-9.12-14.74-27.61-23.66-44.92-23.05ZM254.71,201.94c-74.27,5.79-57.29,121.28,17.51,103.17,59.93-14.51,46.51-108.16-17.51-103.17ZM229.91,394.07c-2.26.49-8.04,4.87-12.13,6.03-4.54,1.28-15.66,1.02-17.13,1.91-1.28.77-7.22,10.78-8.08,12.86-8.81,21.49,9.24,5.65,18.89,10.57,8.09,4.13,11.27,31.64,24.87,22.72,6.31-4.14,6.24-14.92,17.34-10.68,4.13,1.58,16,15.44,17.44,4.53.25-1.9.37-9.62-.97-10.57-.97-.69-21.8,4.17-21-4.65.52-5.71,8.49-2.31,11.93-2.35,3.26-.04,16.63-4.11,13.41-8.69-.65-.92-17.85-7.2-20.88-8.66-7.35-3.54-14.23-7.78-20.88-12.47-.9-.59-1.74-.79-2.81-.56h0Z"/>
  <path class="st3" d="M344.36,18.93c3.26,1.22,6.47,6.88,8.38,10.18,3.6,6.21,6.11,13.1,9.7,19.33,7.52,13.03,9.21,15.53,24.78,12.88,9.39-1.6,20.1-6.02,29.1-7.07,2.45-.29,4.89-.94,6.07,1.8,2,15.79-.81,28.54-3.63,44.01,2.18,8.9,8.54,10.33,16,13.1l.95.95c.48.18,1.43-.19,1.9,0-.47,2.12,1.17,2.02,2.35,2.84,10.34,7.15,16.3,10.87,14.67,25.14-1.08,9.42-13.19,25.59-23.2,25.4-8.61-.16-9.51-6.38-14.27-11.51-17.76-19.13-36.17-33.9-61.16-42.58-1.07-.37-3.43-1.92-4.04-.23-5.49-2.69-14.76-8.02-12.86,2.87,29.74,14.21,56.96,33.99,72.05,64.05,4.89,9.74,7.76,20.43,12.65,30.18,11.58,23.08,39.82,56.38,65.21,63.75,6.32,1.84,12.79,2.58,19.41,1.8,24.26-2.87,54.21-52.07,72.53-69.28,19.26-18.09,15.53,2.26,19.41,14.18,1.17,3.59,1.87,4.59,4.75,7.15s8.87,5.96,12.38,8.08c-1.45,16.84-30.76,27.86-28.33,44.97.87,6.14,6.49,10.53,7.89,15.91,4.56,17.52-17.11,22.5-25.22,32.89-13.24,16.94,2.7,24.69-.45,39.53-2.21,10.42-17.03,12.12-25.76,13.26-4.79.62-10.06-.91-14.67,1.51-7.81,4.1-9.45,21.59-14.98,22.09-5.86.53-13.77-17.87-16.01-22.7-.64-1.39.21-3.37-2.39-2.79-1.27-11.55-6.08-22.78-20.25-19.77-2.34.5-7.07,3.9-9.25,5.49-6.74.98-17.47,5.91-24.11,3.65-1.41-.48-3.48-4.92-4.91-6.52-6.42-7.18-15.31-12.74-25.23-13.31-4.86-.28-10.92,1.96-6.75,7.23,1.42,1.79,11.76,6.42,15.8,10.84,3.69,4.05,9.96,18.96,10.92,19.54,3.38,2.04,9.59-1.77,15.3,4.69,10.85,12.26-7.42,16.89-10.26,23.15-1.98,4.35-.28,7.32-.26,11.64-7.65,6.35-19.58-.56-26.63,2.4-7.32,3.07-15.93,36.73-32.87,18.56-6.61-7.09-5.9-19.42-20.45-16.2,3.17-11.53,5.46-20.34,2.36-32.38-.41-1.59.13-3.37-2.35-2.83-.5-2.59-1.35-5.66-2.78-8.14-.56-.97-3.03-4.88-3.59-5.23-4.51-2.81-8.47,1.32-6.95,5.76-4.89,1.27-8.45,5.75-13.28,8.13-27.46,13.57-61.5.82-88.32-7.89-1.09-.35-3.4-1.95-4.04-.24-3.92-2.38-6.73-5.71-11.68-4.53-1.04.25-1.8,1.34-2.6,1.67s-1.52,1.39-2.58,1.66c-5.99,1.5-20.64,2.39-17.27-7.69,1.07-3.19,20.82-8.81,24.88-10.4,1.49-.58,3.07-.26,2.58-2.6,17.61-4.25,54.25-14.28,69.02-1.92,3.07,2.57,3.95,8.12,9.29,6.52,7.7-2.31-3.86-13.08-7.22-15.25-13.24-8.53-29.94-2.91-40.55-10.84-2.5-1.87-8.45-10.24-11.58-5.45-3.31,5.07,5.28,8.62,4.83,13.62-14.85,3.06-29.96,5.91-44.51,10.22-38.51,11.41-71.59,31.37-113.48,33.56-21.35,1.12-40.99-1.27-58.37-14.44-29.74-22.54-15.68-43.48,9.52-60.58,2.48-1.69,10.92-5.05,11.61-7.5,1.04-3.69-8.84-19.94-.83-25.97.29.15,4.77,1.61,5.71,1.9,9.68,7.47,26.67,8.42,38.27,5.43,3.23-.83,11.23-3.76,12.18-7.33,7.87,7.47,17.47,13.96,27.6,19.03,13.25,6.64,23.91,8.63,39.03,5.24,9.92-2.22,24.46-9.74,28.54-19.52,8.28,7.31,17.81,14.82,28.55,18.08-.49,2.36,1.11,2.01,2.58,2.6,30.71,12.36,67.6-6.61,74.99-38.76,1.3-5.67.5-6.83.47-11.43-.03-3.48,0-6.99,0-10.47,2.53-2.45.39-6.29,0-8.57-3.31-19.21-12.56-34.29-29.82-43.94-26.47-14.81-53.18-8.49-75.22,10.57-16.81-19.63-43.72-28.27-68.69-19.96-5.75,1.91-10.42,5.72-16.09,7.71-8.31-6.74-16.49-13.51-27.17-16.23,2.23-10.92,15.72-18.07,26.17-18.07,5.49,0,13.33,4.74,17.99,1.79,3.2-2.03,11.76-15.82,15.31-19.89,17.8-20.44,42.06-36.18,69.01-40.92l-2.86-2.85c8.59-2.07,21.28.81,27.88-1.14,4.06-1.2,2.83-5.02.67-7.42-1.03-1.15-2.93-.69-1.47-2.89,25.57-23.31,49.45-48.21,73.32-73.25,4.03-3.42,12.03-1.73,16.66,0l.02-.05ZM238.72,103.64h-4.75c-.67,3.51,2.17.88,4.75.93v-.93ZM159.73,175.96c2.16,1.2,1.1.12,1.9,0,.31-.05.65.06.95,0,5.17-.98,10.41-2.49,15.71-2.85,17.91-1.2,35.75,1.65,52.81,6.65.36.22.62.75.95.95.26.16.52.87.95.95,6.64,1.33,8.57-3.96,3.18-8.42-18.05-14.93-49.62-16.76-70.74-8.22-4.68,1.89-14.02,6.35-5.73,10.93h.02ZM269.18,186.43c15.4,1.1,28.73,4.09,41.79,12.93,2.14,1.45,14.05,10.76,15.02,12.09,1.13,1.55.03,5.02,3.14,4.48.11.25-.1.66,0,.95.28.82-.16,1.1.95,1.9,3.22,2.32,7.98,1.79,7.58-3.22-1.4-17.3-30.17-36.44-46.39-38.39-4.71-.57-27.09-1.48-28.63,3.22-1.83,5.58,2.69,5.75,6.53,6.03h.01ZM525.19,350.13c5.28,0,12.04-4.95,15.73-8.54,14.19-13.78,16.02-37.21,7.91-54.65-.65-1.4-.51-2.96-2.7-2.48-.22-1.61-.57-5.36-1.87-6.22s-5.38-.84-6.28.45.9,23.54.52,28.12c-.77,9.34-4.68,21.12-10.48,28.54-2.39,3.07-13.82,11.68-14.1,12.58-1.23,3.97,1.83,6.68,5.56,5.62.63-.18,4.85-2.8,5.7-3.42h.01ZM246.34,331.09c-.54,2.53,1.26,1.89,2.84,2.35,23.83,6.86,40.06,4.12,56.17-14.72,2.18-2.55,8.21-6.06,4.3-9.53s-9.84,3.48-13.53,5.53c-12.3,6.85-26.49,10.8-40.72,9.69-4.62-.36-17.82-5.48-20.03-1.9-3.3,5.34,7.54,7.94,10.98,8.58h-.01ZM117.85,320.62c.33.31.56.68.95.95.21.15.73-.15.95,0,13.81,19.3,42.65,20.67,60.91,6.66,1.73-1.33,4.06-1.27,4.59-4.5,1.5-9.14-13.21-1.42-17.72-.54-10.16,1.98-18.45,1.48-28.3-1.59-4.67-1.45-17.95-9.62-19.95-9.64-5.74-.07-4.91,5.37-1.43,8.66Z"/>
  <path class="st2" d="M254.71,201.94c64.03-5,77.44,88.66,17.51,103.17-74.81,18.11-91.78-97.37-17.51-103.17ZM256.58,243.72c-9.68,1.41-12.17,16.8-2.38,20.02,18.62,6.12,18.31-22.33,2.38-20.02Z"/>
  <path class="st2" d="M163.37,197.16c17.31-.61,35.8,8.3,44.92,23.05-9.65,15.1-13.23,31.13-8.85,48.82,1.36,5.51,4.46,10.27,5.85,15.71-25.36,30.79-74.98,21.81-89.51-14.86-13.36-33.71,11.53-71.45,47.59-72.72ZM152.78,242.78c-7.88,2.34-9.26,17.06.44,20.11,18.68,5.86,18.46-25.73-.44-20.11Z"/>
  <path class="st2" d="M79.58,190.5c16.53-1.99,31.75,3.4,42.96,15.57-18.9,20.23-24.46,48.04-11.42,73.06-39.27,25.18-87.1-17.38-68.62-60.03,6.22-14.36,21.34-26.7,37.08-28.59h0ZM71.9,231.36c-12.05,2.74-8.84,23.42,5.29,20.52,13.2-2.71,8.81-23.73-5.29-20.52Z"/>
  <path class="st1" d="M497.59,380.58c2.6-.58,1.75,1.41,2.39,2.79,2.24,4.84,10.16,23.23,16.01,22.7,5.53-.5,7.17-17.99,14.98-22.09,4.61-2.42,9.88-.89,14.67-1.51,8.73-1.14,23.55-2.84,25.76-13.26,3.15-14.84-12.79-22.59.45-39.53,8.12-10.39,29.79-15.37,25.22-32.89-1.4-5.38-7.02-9.77-7.89-15.91-2.43-17.11,26.88-28.13,28.33-44.97,7.32,4.43,17.26,5.94,9.36,17.45-8.9,12.97-29.05,22.77-25.33,40.87,1.37,6.66,9.43,12.16,8.14,19.96-1.77,10.71-24.52,16.73-29.49,30.5-5.51,15.26,5.49,23.68,2.85,35.21-2.97,12.93-30.09,6.26-39.7,12.64-9.86,6.54-19,53.69-35.46,27.72-8.35-13.18-8.66-24.87-10.29-39.68h0Z"/>
  <path class="st1" d="M351.98,113.15c.62-1.69,2.97-.14,4.04.23,24.99,8.68,43.4,23.45,61.16,42.58,4.76,5.13,5.66,11.34,14.27,11.51,10.01.19,22.13-15.98,23.2-25.4,1.63-14.27-4.33-17.99-14.67-25.14-1.18-.82-2.82-.72-2.35-2.84,5.99,2.36,28.34,11.07,31.3,15.81,7.33,11.74-17.13,30.11-18,41.79-.91,12.3,15.64,18.19,12.18,34.98-1.61,7.84-15.81,19.37-23.17,14.08-1.15-.83-5.28-8.05-6.28-9.89-7.34-13.49-11.69-29.2-19.33-42.53-12.96-22.61-39.1-43.8-62.36-55.18h.01Z"/>
  <path class="st1" d="M229.91,394.07c1.07-.23,1.91-.03,2.81.56,6.65,4.69,13.54,8.93,20.88,12.47,3.02,1.46,20.23,7.73,20.88,8.66,3.22,4.57-10.14,8.65-13.41,8.69-3.44.04-11.41-3.36-11.93,2.35-.8,8.82,20.04,3.96,21,4.65,1.34.95,1.22,8.67.97,10.57-1.44,10.91-13.31-2.95-17.44-4.53-11.1-4.24-11.03,6.54-17.34,10.68-13.6,8.92-16.78-18.59-24.87-22.72-9.66-4.93-27.71,10.92-18.89-10.57.85-2.08,6.79-12.09,8.08-12.86,1.47-.88,12.59-.62,17.13-1.91,4.09-1.16,9.87-5.54,12.13-6.03h0Z"/>
  <path class="st4" d="M60.75,289.22c-8.01,6.04,1.86,22.28.83,25.97-.69,2.46-9.12,5.82-11.61,7.5-25.2,17.11-39.26,38.05-9.52,60.58,17.37,13.17,37.02,15.55,58.37,14.44l-16.66,1.99c-24.64-1.86-52.25-8.6-68.02-29.13-19.74-25.7,15.96-50.95,36.67-60.41.1-5.58-3.76-10.46-3.43-16.62.13-2.48,2.41-8.54,4.31-10.06,1.57-1.25.6-.77,1.9.03,1.93,1.19,3.77,2.63,5.77,3.8.74.43,1.16,1.79,1.38,1.91h0Z"/>
  <path class="st4" d="M227.3,103.63l2.86,2.85c-26.95,4.74-51.21,20.48-69.01,40.92-3.55,4.08-12.11,17.86-15.31,19.89-4.65,2.95-12.5-1.79-17.99-1.79-10.46,0-23.94,7.15-26.17,18.07-2.74-.7-6.64-.86-9.52-.96,3.59-18.43,18.29-27.15,36.63-25.68,3.41.27,9.29,2.75,12.22,1.75,1.06-.36,11.47-14.91,13.94-17.49,17.42-18.18,37.61-28.92,61.88-34.72,2.56-.61,6.03-1.39,8.57-1.9.1-.02.88-.7,1.9-.95h0Z"/>
  <path class="st1" d="M345.31,389.15c.04.11,1.34.68,1.74,1.55,1.31,2.82,6.01,13,3.87,15.48-.83.96-21.54,6.07-24.42,6.5-33.2,4.91-59.53-6.96-86.82-23.54.64-1.71,2.94-.12,4.04.24,26.83,8.71,60.87,21.47,88.32,7.89,4.83-2.39,8.39-6.87,13.28-8.13h0Z"/>
  <path class="st4" d="M600.37,220.69c-3.89-11.92-.15-32.26-19.41-14.18-18.32,17.21-48.27,66.41-72.53,69.28-6.62.78-13.08.03-19.41-1.8,3.27-.16,6.63.31,9.89-.1,31.23-3.91,59.32-61.38,84.32-81.28,3.05-2.43,8.51-6.64,12.38-4.76,5.69,2.77,4.82,26.92,4.76,32.85h0Z"/>
  <path class="st1" d="M358.64,396.76c2.48-.53,1.94,1.24,2.35,2.83,3.1,12.04.81,20.84-2.36,32.38,14.55-3.22,13.83,9.11,20.45,16.2,16.94,18.18,25.56-15.49,32.87-18.56,7.05-2.96,18.97,3.95,26.63-2.4.02,4.83.91,9.77-3.84,12.81-7.47,4.78-15.76-2.99-24.31,1.43-6.75,3.49-14.7,25.33-23.51,22.71-7.51-2.23-9.62-20.5-22.09-20.87-8.64-.26-17.57,7.75-14.33-7.58,3.41-16.16,12.48-16.64,8.14-38.96h0Z"/>
  <path class="st4" d="M344.36,18.93c-4.63-1.74-12.63-3.42-16.66,0-23.87,25.04-47.75,49.94-73.32,73.25-1.46,2.2.44,1.74,1.47,2.89l-13.32-.47c21.17-20.09,42.49-39.96,62.83-60.89,5.16-5.31,19.42-23.87,25.43-25.04,6.23-1.21,12.86,3.94,13.57,10.27h0Z"/>
  <path class="st4" d="M422.4,56.04c-1.19-2.73-3.62-2.08-6.07-1.8-9,1.05-19.72,5.47-29.1,7.07-15.57,2.65-17.26.14-24.78-12.88,1.1.97,1.65,2.45,2.91,3.27,11.88,7.71,38.41-4.56,51.76-6.08,6.45,1.08,4.71,5.9,5.28,10.42Z"/>
  <path class="st1" d="M318.67,264.47c.04,4.6.84,5.76-.47,11.43-7.39,32.15-44.28,51.12-74.99,38.76-1.48-.59-3.08-.24-2.58-2.6,36.09,10.96,70.15-11.92,78.04-47.59Z"/>
  <path class="st1" d="M233.01,367.26c.49,2.34-1.09,2.02-2.58,2.6-4.06,1.59-23.81,7.21-24.88,10.4-3.37,10.08,11.28,9.19,17.27,7.69,1.07-.27,1.79-1.33,2.58-1.66-9.25,11.54-31.4,8.99-39.02-3.31,14.49-7.66,30.77-11.9,46.64-15.72h0Z"/>
  <path class="st1" d="M468.08,366.31c-.8.58-1.87,2.77-3.33,3.81-7.42,5.25-16.55,8.58-25.61,9.59-2.94-8.67-8.54-15.95-15.34-21.94l-9.97-7.63c9.92.57,18.81,6.13,25.23,13.31,1.42,1.59,3.49,6.04,4.91,6.52,6.64,2.26,17.37-2.67,24.11-3.65h0Z"/>
  <path class="st1" d="M212.07,293.98c-4.08,9.78-18.62,17.3-28.54,19.52-15.12,3.38-25.78,1.4-39.03-5.24,18.8,5.05,39.36,4,55.51-7.78,2.02-1.47,9.06-9.19,9.71-9.33,2.19-.49,2.02,2.55,2.35,2.84h0Z"/>
  <path class="st1" d="M116.9,289.22c-.95,3.58-8.95,6.5-12.18,7.33-11.6,2.99-28.58,2.04-38.27-5.43,12.54,3.91,26.88,4.16,39.27-.23,2.29-.81,8.91-5.18,10.27-4.11.78.62.69,2.23.9,2.43h0Z"/>
  <path class="st3" d="M225.4,104.58c-2.53.51-6,1.29-8.57,1.9,2.24-2.16,5.67-1.97,8.57-1.9h0Z"/>
  <path class="st1" d="M318.67,254v-8.57c.39,2.27,2.53,6.11,0,8.57Z"/>
  <path class="st1" d="M435.73,114.1l-.95-.95c.49.18.78.89.95.95Z"/>
  <path class="st0" d="M330.09,218.79l-.95-1.9c-.1-.3.11-.7,0-.95-10.55-23.39-34.44-36.68-59.96-29.5-3.84-.27-8.36-.45-6.53-6.03,1.54-4.71,23.93-3.79,28.63-3.22,16.22,1.95,44.99,21.09,46.39,38.39.4,5.02-4.36,5.54-7.58,3.22h0Z"/>
  <path class="st0" d="M546.12,284.46c3.08,22.42-1.45,51.37-20.94,65.67-.85.62-5.07,3.25-5.7,3.42-3.73,1.06-6.8-1.65-5.56-5.62.28-.9,11.7-9.51,14.1-12.58,5.8-7.43,9.71-19.2,10.48-28.54.38-4.58-1.46-26.78-.52-28.12s4.98-1.32,6.28-.45,1.64,4.61,1.87,6.22h0Z"/>
  <path class="st0" d="M233.01,181.67l-.95-.95c-.33-.2-.59-.73-.95-.95-17.03-10.33-30.14-14.82-50.47-10.98-5.68,1.07-13.95,3-18.05,7.17-.3.06-.64-.05-.95,0h-1.9c-8.29-4.58,1.04-9.03,5.73-10.93,21.12-8.54,52.69-6.71,70.74,8.22,5.39,4.45,3.46,9.75-3.18,8.42h-.02Z"/>
  <path class="st0" d="M305.34,318.72c-17.76,11.01-38.08,16.25-59.01,12.37-3.44-.64-14.28-3.24-10.98-8.58,2.21-3.58,15.42,1.54,20.03,1.9,14.23,1.11,28.42-2.84,40.72-9.69,3.69-2.06,9.54-9.08,13.53-5.53s-2.13,6.98-4.3,9.53h0Z"/>
  <path class="st0" d="M117.85,320.62c-3.48-3.29-4.31-8.72,1.43-8.66,2.01.02,15.29,8.19,19.95,9.64,9.85,3.07,18.14,3.57,28.3,1.59,4.51-.88,19.23-8.6,17.72.54-.53,3.23-2.86,3.17-4.59,4.5-19.79,6.61-43.25,4.85-60.91-6.66-.22-.15-.74.15-.95,0,0,0-.95-.95-.95-.95Z"/>
  <path class="st1" d="M546.12,284.46c2.2-.48,2.05,1.08,2.7,2.48,8.11,17.44,6.28,40.86-7.91,54.65-3.69,3.59-10.45,8.53-15.73,8.54,19.49-14.3,24.01-43.25,20.94-65.67h0Z"/>
  <path class="st4" d="M231.11,179.77c-17.06-5-34.9-7.85-52.81-6.65-5.31.36-10.54,1.86-15.71,2.85,4.1-4.17,12.37-6.1,18.05-7.17,20.34-3.85,33.44.65,50.47,10.98h0Z"/>
  <path class="st1" d="M180.67,328.24c-18.26,14-47.1,12.64-60.91-6.66,17.66,11.52,41.12,13.27,60.91,6.66Z"/>
  <path class="st1" d="M305.34,318.72c-16.11,18.84-32.34,21.58-56.17,14.72-1.58-.45-3.38.18-2.84-2.35,20.93,3.88,41.25-1.36,59.01-12.37h0Z"/>
  <path class="st4" d="M329.13,215.93c-3.11.54-2.01-2.93-3.14-4.48-.98-1.33-12.88-10.64-15.02-12.09-13.06-8.84-26.39-11.84-41.79-12.93,25.52-7.17,49.41,6.11,59.96,29.5h0Z"/>
  <path class="st4" d="M238.72,103.64v.93c-2.58-.05-5.42,2.58-4.75-.94h4.75Z"/>
  <path class="st4" d="M161.63,175.96c-.8.12.26,1.2-1.9,0h1.9Z"/>
  <path class="st4" d="M330.09,218.79c-1.11-.8-.67-1.09-.95-1.9l.95,1.9Z"/>
  <path class="st4" d="M233.01,181.67c-.43-.09-.69-.8-.95-.95l.95.95Z"/>
  <path class="st1" d="M118.81,321.58c-.39-.27-.62-.64-.95-.95l.95.95Z"/>
  <path class="st0" d="M256.58,243.72c15.93-2.32,16.24,26.14-2.38,20.02-9.79-3.22-7.3-18.61,2.38-20.02Z"/>
  <path class="st0" d="M152.78,242.78c18.9-5.63,19.11,25.97.44,20.11-9.7-3.04-8.31-17.76-.44-20.11Z"/>
  <path class="st0" d="M71.9,231.36c14.09-3.2,18.49,17.82,5.29,20.52-14.13,2.9-17.33-17.79-5.29-20.52Z"/>
</svg>