<?xml version="1.0" encoding="UTF-8"?>
<svg id="Capa_1" xmlns="http://www.w3.org/2000/svg" version="1.1" viewBox="0 0 800 800">
  <!-- Generator: Adobe Illustrator 29.6.1, SVG Export Plug-In . SVG Version: 2.1.1 Build 9)  -->
  <defs>
    <style>
      .st0 {
        fill: #fff;
        fill-rule: evenodd;
      }
    </style>
  </defs>
  <path id="Subtract" class="st0" d="M482.3,72.11c-47.12-41.22-117.48-41.22-164.6,0l-221.95,194.15c-34.37,30.07-54.09,73.51-54.09,119.17v281.23c0,69.04,55.96,125,125,125h466.67c69.04,0,125-55.96,125-125v-281.23c0-45.66-19.72-89.11-54.09-119.17l-221.95-194.15ZM272.06,494.16c-5.93-12.47-20.84-17.77-33.31-11.85-12.47,5.93-17.77,20.84-11.84,33.31,15.57,32.74,40.1,60.4,70.75,79.76,30.65,19.36,66.17,29.63,102.42,29.61,36.26-.01,71.76-10.31,102.4-29.69,30.64-19.38,55.15-47.06,70.69-79.81,5.92-12.48.6-27.39-11.87-33.3-12.47-5.92-27.38-.61-33.3,11.87-11.49,24.21-29.6,44.67-52.25,58.99-22.64,14.33-48.89,21.94-75.69,21.95-26.8,0-53.05-7.58-75.7-21.89-22.66-14.31-40.79-34.75-52.3-58.95Z"/>
</svg>