<?xml version="1.0" encoding="UTF-8"?>
<svg id="Capa_1" xmlns="http://www.w3.org/2000/svg" version="1.1" viewBox="0 0 749.91 199.8">
  <!-- Generator: Adobe Illustrator 29.6.1, SVG Export Plug-In . SVG Version: 2.1.1 Build 9)  -->
  <defs>
    <style>
      .st0 {
        fill: #dc6837;
      }

      .st1 {
        fill: #838dc0;
      }

      .st2 {
        fill: #c57495;
      }

      .st3 {
        fill: #ca2a2a;
      }

      .st4 {
        fill: #d6d8e5;
      }

      .st5 {
        fill: #f8ce20;
      }

      .st6 {
        fill: #85519b;
      }

      .st7 {
        fill: #fff;
      }

      .st8 {
        fill: #efa0bf;
      }

      .st9 {
        fill: #fefefe;
      }

      .st10 {
        fill: #6d79ad;
      }
    </style>
  </defs>
  <g>
    <g>
      <path class="st5" d="M724.48,141.35l.02-.23c3.95-1.27,7.22-3.61,7.35-6.46.16-3.51-5.89-7.08-19.69-7.63v-14.34c6.4.23,13.12-.93,13.23-6.77.12-6.07-7.72-8.74-13.23-9.86h0c-1.16-3.92-3.53-5.54-3.53-5.54l3.53-15.9h-119.99v49l12.05,31.72h-.38v19.22c29.5,28.39,62.9,26.84,79.57,20.21,14.7-5.85,18.32-21.01,18.32-21.01v-10.53c22.74,4.72,42.21,10.34,46.66,1.29,4.64-9.44-23.92-23.17-23.92-23.17Z"/>
      <path class="st7" d="M672.69,158.93s-.08,6.97,6.36,9c3.84,1.21,7.66,0,10.13-1.16h0s2.57,6.81,8.75,6.98c4.84.14,8.21-1.68,10.21-3.23h0s2.78,5.99,10.44,4.2c6.79-1.59,7.41-6.51,7.41-6.51h0c-14.77-2.47-34.54-8.22-53.29-9.28Z"/>
      <path class="st9" d="M688.61,131.1c2.25-1.56,5.75-2.8,10.49-3.51l.23-.63c6.29-7.43-1.52-14.06-1.52-14.06l-.16.05c-6.06,1.74-18.38-.15-24.22-1.21-3.12-.57-6.38.57-8.22,3.15-.63.88-1.13,1.93-1.34,3.17-.82,4.94.42,12.92,24.74,13.05h0Z"/>
      <path class="st9" d="M720.73,111.73h0c-7.16,2.54-20.03-.62-20.03-.62h0s0,0,0,0c-.58.84-1.64,1.43-3.04,1.84,0,0,0,0,0,0l.16-.05s7.81,6.63,1.52,14.06l-.23.63c-.1.02-.2.03-.3.05,2.91-.46,6.29-.71,10.18-.68,4.2.03,7.77.31,10.76.78h0c1.89-.78,4.21-2.57,4.8-7.04.73-5.58-3.82-8.97-3.82-8.97Z"/>
      <path class="st6" d="M622.31,166.8s17.52.19,14.02-20.05c0,0,7.59-2.54,8.18-12.17.2-3.38-1.32-6.79-3.38-9.79,0,0,5.52-5.09,3.57-10.93-1.95-5.84-8.56-6.16-8.56-6.16,0,0,4.16-1.18,5.06-6.76.45-2.79-1.47-5.2-2.71-6.44,1.69,1.32,5.48,3.47,10.69,1.72,5.91-2,6.42-8.82,6.42-8.82,0,0,12.27,9.88,23.76.43,0,0,12.84,10.32,24.81,0,0,0,.94.79,2.44,1.66l2.02,1.04s2.37,1.61,3.53,5.54h0c5.52,1.13,13.36,3.79,13.23,9.86-.06,3.16-2.07,4.95-4.9,5.89.08-.03.16-.05.23-.07h0s4.55,3.39,3.82,8.97c-.59,4.47-2.91,6.26-4.8,7.04h0c-.11-.01-.23-.03-.34-.04,4.24.64,7.33,1.64,9.38,2.83h.02s14.39-2.77,15.36-12.15c.97-9.38-4.09-12.72-4.09-12.72,0,0,8.56-.95,8.17-8.54-.39-7.59-5.24-10.71-9.14-11.48,0,0,7.39-7.59,3.89-15.77-3.5-8.18-9.93-8.56-9.93-8.56,0,0,7.01-9.93.97-16.35-6.03-6.42-10.9-5.06-10.9-5.06,0,0,3.75-6.62-4.84-14.02-4.69-4.04-9.89-4.31-13.65-3.72,0,0-4.67-17.89-25.11-11.27,0,0-12.26-14.42-27.45-1.47,0,0-8.18-10.41-18.49-8.07s-15.18,13.04-15.18,13.04c0,0-12.07-7.4-21.41-1.36-9.34,6.03-9.55,16.55-9.55,16.55,0,0-14.4-1.95-21.6,7.59-7.2,9.54-3.31,20.24-3.31,20.24,0,0-9.15,2.03-11.29,10.16s3.89,14.95,3.89,14.95c0,0-9.15,4.48-8.18,13.24.97,8.76,3.89,10.28,3.89,10.28,0,0-6.18,5.1-3.97,13.86.69,2.71,3.16,5.24,6.25,7.44,0,0-3.69,7.14,2.39,16.64,3.89,6.08,10.51,4.93,10.51,4.93,0,0-2.92,9.93,5.84,14.79,2.59,1.44,5.28,2.03,7.79,2.14,0,0,3.22,14.33,22.73,8.23,0,0,14.45,6.17,19.9-7.26Z"/>
    </g>
    <g>
      <path d="M685.55,124.25c-1.49,0-2.71,1.21-2.71,2.71s1.21,2.71,2.71,2.71,2.71-1.21,2.71-2.71-1.21-2.71-2.71-2.71Z"/>
      <path d="M749.49,159.95c-2.64-7.64-17.49-15.88-22.75-18.6,3.4-1.47,5.99-3.77,6.11-6.65.05-1.2-.44-2.39-1.43-3.43-.1-.1-.21-.2-.31-.29,4.21-1.21,13.25-4.69,14.06-12.51.68-6.57-1.45-10.37-3.02-12.23,3.29-.97,7.39-3.62,7.11-9.18-.41-8.04-5.38-10.96-8.36-11.98,2.02-2.59,5.93-8.84,3.03-15.61-2.67-6.22-6.94-8.23-9.23-8.87,1.75-3.03,5.33-10.75.08-16.33-4.26-4.54-8.05-5.42-10.15-5.49.21-.81.39-1.89.32-3.17-.14-2.55-1.28-6.43-5.99-10.49-4.68-4.03-9.84-4.5-13.61-4.06-.73-2.09-3.08-7.48-8.63-10.52-4.62-2.54-10.3-2.8-16.87-.8-1.48-1.54-6.42-6.11-13.38-6.67-4.87-.39-9.66,1.27-14.25,4.95-2.21-2.47-9.63-9.73-18.84-7.65-8.93,2.02-13.88,9.86-15.38,12.63-3.11-1.65-13.21-6.19-21.54-.82-8,5.17-9.61,13.36-9.92,16.29-3.55-.26-15.08-.39-21.48,8.08-6.21,8.23-4.57,17.17-3.77,20.16-2.58.82-9.15,3.57-11,10.6-1.8,6.82,1.72,12.67,3.35,14.9-2.52,1.55-8.5,6.07-7.66,13.64.68,6.16,2.33,8.97,3.42,10.2-1.72,1.84-5.32,6.74-3.47,14.07.63,2.5,2.64,5.03,5.99,7.53-.82,2.21-2.43,8.7,2.78,16.84,3.07,4.8,7.65,5.48,10,5.48h.11c-.47,3.06-.75,10.5,6.59,14.58,2.26,1.26,4.79,2,7.51,2.22.53,1.58,2.16,5.34,6.3,7.73,2.38,1.38,5.17,2.06,8.35,2.06,2.67,0,5.61-.48,8.8-1.45.22.09.56.2.97.33,13.32,12.76,28.44,20.61,44.95,23.34,4.09.68,8.23,1.01,12.3,1.01,8.34,0,16.41-1.39,23.2-4.1,14.1-5.61,18.27-19.27,18.85-21.44,2.14-.53,3.88-1.4,5.22-2.31,1.07,1.49,3.56,4.1,7.98,4.1.9,0,1.89-.11,2.96-.36,5.54-1.3,7.35-4.66,7.92-6.36,3.83.61,7.33,1,10.38,1,5.96,0,10.25-1.44,12.19-5.38.75-1.52.81-3.21.19-5.01ZM602.11,173.11c-6.58,2.05-11.92,1.95-15.87-.31-4.48-2.57-5.58-7.15-5.59-7.19-.1-.44-.48-.76-.93-.78-2.69-.12-5.16-.8-7.35-2.02-7.94-4.41-5.47-13.26-5.36-13.64.1-.33.01-.69-.21-.94-.23-.26-.57-.38-.91-.32-.24.04-6.03.94-9.5-4.48-5.67-8.85-2.48-15.37-2.35-15.64.23-.44.1-.99-.31-1.27-3.33-2.37-5.3-4.68-5.86-6.87-2.02-8.01,3.4-12.65,3.63-12.84.25-.21.37-.53.35-.85-.02-.32-.22-.62-.49-.79-.03-.01-2.51-1.61-3.39-9.52-.88-7.94,7.54-12.19,7.62-12.23.28-.14.48-.4.54-.7.06-.31-.02-.62-.23-.86-.06-.06-5.65-6.53-3.67-14.03,1.96-7.43,10.46-9.42,10.54-9.44.28-.06.52-.24.66-.5s.16-.55.06-.82c-.04-.1-3.61-10.33,3.17-19.3,6.76-8.95,20.53-7.22,20.67-7.2.29.04.57-.05.78-.23.22-.18.34-.45.35-.74,0-.1.33-10.07,9.09-15.73,8.7-5.61,20.23,1.31,20.35,1.38.24.15.54.19.81.1.27-.08.5-.28.62-.54.05-.1,4.8-10.29,14.49-12.48,9.57-2.17,17.41,7.61,17.49,7.71.17.21.42.35.69.38.27.02.54-.06.75-.23,14.22-12.14,25.56.8,26.04,1.36.26.31.69.43,1.07.3,6.28-2.03,11.62-1.88,15.89.44,6.09,3.32,7.93,10.06,7.95,10.13.13.5.61.81,1.12.73,3.4-.54,8.38-.36,12.85,3.48,7.81,6.73,4.75,12.53,4.62,12.76-.2.35-.16.78.08,1.1.24.32.66.46,1.05.36.18-.05,4.43-1.06,9.91,4.78,5.4,5.75-1,15-1.06,15.09-.21.29-.24.68-.08,1,.15.33.48.54.83.57.24.02,5.88.5,9.07,7.96,3.19,7.45-3.62,14.6-3.69,14.68-.25.26-.35.64-.24.99.11.35.4.61.76.68,1.85.37,7.92,2.22,8.34,10.56.33,6.55-6.98,7.46-7.29,7.49-.42.05-.75.35-.85.76-.1.41.07.83.41,1.07.19.13,4.54,3.19,3.65,11.78-.8,7.75-12.05,10.7-14.2,11.19-1.69-.93-3.89-1.69-6.53-2.25,1.67-1.47,2.74-3.62,3.1-6.38.56-4.23-1.58-7.27-3.02-8.8.45-.23.87-.48,1.25-.78,1.7-1.3,2.58-3.09,2.63-5.32.13-6.58-7.69-9.5-13.47-10.75-.35-1.04-.78-1.92-1.23-2.64,1.77.35,3.68.38,5.6-.21.53-.17.82-.73.66-1.25-.17-.53-.72-.82-1.25-.66-5.69,1.77-11.83-3.32-11.89-3.37-.38-.32-.93-.31-1.3,0-11.19,9.64-23.03.38-23.53-.02-.37-.3-.9-.29-1.26,0-10.72,8.8-22.03-.06-22.5-.44-.29-.23-.68-.29-1.02-.14-.34.15-.57.47-.6.84-.02.25-.55,6.2-5.75,7.96-4.67,1.58-8.06-.26-9.64-1.45-.6-.6-1.06-.95-1.12-1-.41-.31-.99-.25-1.34.13-.35.38-.35.96,0,1.34.05.06.43.47,1.11,1,1.1,1.12,2.72,3.2,2.35,5.49-.78,4.84-4.21,5.92-4.35,5.96-.47.13-.77.59-.72,1.07.05.49.45.86.94.89.24.01,5.97.38,7.67,5.48,1.71,5.14-3.25,9.83-3.3,9.88-.36.34-.43.89-.14,1.3,2.29,3.34,3.37,6.42,3.2,9.17-.53,8.8-7.21,11.19-7.5,11.29-.47.16-.75.63-.67,1.12,1.08,6.21.22,11.02-2.55,14.28-3.86,4.55-10.28,4.6-10.47,4.6h-.01c-.41,0-.78.25-.93.62-1.43,3.51-3.63,5.91-6.56,7.12-5.55,2.29-11.96-.37-12.02-.4-.22-.09-.46-.11-.69-.03ZM715.75,121.99c-1.49,0-2.71,1.21-2.71,2.71,0,.51.15.99.4,1.39-1.42-.08-2.91-.12-4.46-.13-2.86-.01-5.51.12-7.94.38,3.81-5.73.43-10.87-1.49-13.07.59-.29,1.1-.64,1.5-1.05,1.77.4,7.14,1.5,12.49,1.5,2.45,0,4.88-.23,6.96-.87,1,.9,3.58,3.65,3.05,7.72-.4,3.06-1.74,5.12-3.97,6.13-.58-.09-1.18-.17-1.8-.24.41-.47.67-1.08.67-1.76,0-1.49-1.21-2.71-2.71-2.71ZM688.32,130.09c-11.55-.09-18.97-1.98-22.03-5.61-1.41-1.68-1.87-3.67-1.43-6.27.16-.97.55-1.9,1.17-2.75,1.57-2.18,4.4-3.26,7.23-2.75,8.46,1.54,18.53,2.76,24.27,1.28,1.39,1.36,5.92,6.56,1.04,12.32-.1.11-.16.24-.19.38-4.27.68-7.67,1.82-10.06,3.4ZM718.35,173.75c-5.34,1.25-7.99-1.64-8.91-3,.28-.25.54-.49.76-.71.39-.39.39-1.02,0-1.42-.39-.39-1.02-.39-1.42,0-1.61,1.61-5.14,4.29-10.82,4.12-4.21-.12-6.59-3.84-7.46-5.52,1.19-.63,1.93-1.17,2.02-1.24.44-.33.54-.95.21-1.4-.33-.44-.95-.54-1.4-.21-.06.04-6.12,4.44-11.99,2.59-4.27-1.34-5.32-5.11-5.57-6.97,12.09.8,24.58,3.49,35.98,5.96,5.34,1.16,10.37,2.24,14.96,3.05-.53,1.33-2.07,3.74-6.37,4.74ZM747.5,164.08c-3.56,7.24-19.21,3.85-37.32-.07-11.85-2.57-24.85-5.37-37.45-6.07-.01,0-.02,0-.03,0h-.01s-.01,0-.02,0c-4.04-.22-8.03-.22-11.93.06,1.64-2.71,4.15-4.11,4.32-4.19.49-.26.67-.86.41-1.35-.26-.49-.87-.67-1.35-.41-.31.16-7.51,4.09-6.71,12.11.05.52.49.9.99.9.03,0,.07,0,.1,0,.55-.05.95-.54.9-1.09-.14-1.45.04-2.74.41-3.88,3.9-.35,7.9-.39,11.96-.19.25,2.13,1.42,7.25,6.99,9,1.25.39,2.48.55,3.68.55,2.35,0,4.53-.62,6.26-1.34,1.02,2.02,3.86,6.51,9.21,6.66.18,0,.37,0,.55,0,.69,0,1.35-.04,1.98-.11-1.17,3.54-5.64,14.52-17.38,19.19-30.3,12.06-60.65-4.33-75.8-17.53,2.45.31,5.45.27,8.33-.92,3.27-1.35,5.76-3.91,7.41-7.62,1.94-.12,7.55-.84,11.32-5.27,3.06-3.59,4.11-8.68,3.14-15.14,2.09-.98,7.55-4.33,8.06-12.73.18-3-.86-6.27-3.09-9.73,1.47-1.61,4.98-6.15,3.24-11.37-1.3-3.91-4.43-5.59-6.73-6.31,1.32-1.11,2.76-3,3.27-6.13.22-1.38-.04-2.66-.51-3.78,2.06.67,4.71.9,7.83-.16,4.64-1.57,6.27-5.73,6.82-8.06,3.55,2.25,13.53,7.27,23.07-.02,2.8,1.92,14.09,8.62,24.8.03.78.57,2.18,1.5,3.94,2.29.27.21,1.5,1.25,2.46,3.35-2.01-.33-3.45-.44-3.66-.45-.58-.02-1.03.38-1.07.93-.04.55.38,1.03.93,1.07.18.01,17.77,1.32,17.6,9.61-.03,1.61-.64,2.84-1.84,3.77-4.69,3.6-16.44,1.56-20.34.75.57-1.31.68-2.67.32-4.06-1.31-5.06-8.5-8.7-8.8-8.85-.49-.25-1.09-.05-1.34.45-.25.49-.05,1.09.45,1.34.07.03,6.68,3.39,7.76,7.57.33,1.28.09,2.48-.73,3.68-1.87,2.73-11.93,2.81-26.26.21-3.58-.66-7.2.74-9.21,3.55-.79,1.1-1.3,2.31-1.52,3.59-.53,3.18.08,5.76,1.88,7.88,3.28,3.9,10.27,5.96,21.31,6.28-1.11,1.34-1.63,2.85-1.5,4.41.5,5.66,13.78,8.31,15.29,8.59.06.01.12.02.19.02.47,0,.89-.33.98-.82.1-.54-.25-1.07-.8-1.17-5.14-.97-13.39-3.67-13.67-6.8-.1-1.12.32-2.19,1.23-3.18,3.02-3.28,10.53-5.14,20.67-5.14.17,0,.34,0,.51,0,10.41.06,18.26,1.82,21,4.7.62.65.92,1.31.89,1.96-.14,3.15-5.54,5.77-10.45,6.39-.55.07-.94.57-.87,1.12.07.55.55.93,1.12.87,1.17-.15,2.34-.39,3.48-.71,1.4.68,20.68,10.25,23.47,18.32.45,1.29.42,2.43-.1,3.47Z"/>
    </g>
  </g>
  <g>
    <g>
      <g>
        <path class="st1" d="M90.46,167.94h0c.11-.02.17-.03.17-.03l-.17.03Z"/>
        <path class="st1" d="M164.45,157.72l2.54-27.18c15.73-23.81,19.58-53.55,7.54-79.72C155.22,8.8,102.29-8.11,56.32,13.03,10.34,34.17-11.27,85.37,8.05,127.38c8.59,18.68,23.59,32.98,42.14,40.02,19.12,7.26,40.26.55,40.27.54-1.7.3-15.63,2.23-23.24-13.33-8.12-16.59,4.38-46.66,4.38-46.66,0,0,60.34-15.04,73.5-24.68-12.44,22.23-22.54,56.98,7.44,88.84,0,0,15.27,3.44,24.62-6.97,0,0-8.9.41-12.71-7.42Z"/>
      </g>
      <path class="st5" d="M170.55,132.7c-5.12-2.74-9.94-7.11-9.94-7.11l-2.37-20.53c3.22-5.14.49-9.94-2.34-11.27-2.82-1.32-2.47-3.53-2.47-3.53-.44-6.62-4.38-13.06-4.38-13.06h-.27c-13.92,8.39-37.88,13.93-65.13,13.93-3.39,0-6.72-.09-9.99-.25,2.07,1.51,4.23,2.9,6.48,4.15,1.88,1.04,2.46,3.47,1.25,5.25l-4.63,6.78c-1.16,1.69-3.48,2.1-5.14.9,0,0-12.5,30.07-4.38,46.66,7.61,15.56,21.54,13.63,23.24,13.33h0s.17-.03.17-.03c0,0-.06.01-.17.03,0,0-21.15,6.71-40.27-.54h0c8.63,17.31,26.41,28.51,52.65,28.51,30.96,0,48.27-12.8,54.26-35.42h-.03c15.08-4.53,20.48-12.06,21.59-15.78,1.5-5.03-3-9.26-8.12-12Z"/>
      <path class="st0" d="M48.03,80.55l5.52-5.16c1.58-1.48,4.11-1.26,5.41.48l1.6,2.13c5.25,7,11.92,12.8,19.57,17.03h0c1.88,1.04,2.46,3.47,1.25,5.25l-4.63,6.78c-1.16,1.69-3.48,2.1-5.14.9l-7.32-5.27c-4.61-3.32-8.74-7.27-12.27-11.72l-4.35-5.48c-1.18-1.49-1.02-3.63.37-4.93Z"/>
      <path class="st7" d="M117.18,108.4c-3,1.93-7.58,3.5-12.02,4.68-3.3.88-6.63,2.53-9.13,3.96-.99,2.14-1.56,4.51-1.56,7.02,0,9.26,7.51,16.77,16.77,16.77s16.77-7.51,16.77-16.77c0-7.17-4.51-13.27-10.84-15.67Z"/>
      <path class="st7" d="M156,103.77c-2.89.09-5.93-.4-8.55-1.01-6.37,1.27-11.17,6.89-11.17,13.63,0,2.87.87,5.54,2.36,7.75,2.38,0,5.37,0,7.1,0,4.53,0,8.4,1.03,9.4,5.22,5.22-2,8.94-7.05,8.94-12.97,0-5.6-3.32-10.41-8.09-12.61Z"/>
    </g>
    <g>
      <path d="M171.02,131.82c-.9-.48-1.79-1.02-2.65-1.57,16.02-24.83,18.69-54.6,7.08-79.85-9.46-20.58-27.12-35.89-49.72-43.11C103.16.07,78.36,1.79,55.9,12.12,9.5,33.46-12.37,85.35,7.14,127.79c8.68,18.88,23.71,33.21,42.33,40.38,9.4,18.53,28.33,28.73,53.37,28.73s41.32-7.95,50.22-23.68c1.01.18,2.97.45,5.47.45,5.48,0,13.49-1.32,19.37-7.87.27-.3.33-.73.16-1.09-.17-.36-.55-.59-.95-.57-.33,0-7.63.23-11.29-6.01,8.66-4.24,12.71-9.5,13.79-13.15,1.4-4.7-1.74-9.5-8.6-13.17ZM8.96,126.96C-10.1,85.52,11.33,34.82,56.73,13.94c22.01-10.12,46.3-11.81,68.39-4.75,22.06,7.05,39.29,21.98,48.51,42.04,11.32,24.61,8.71,53.65-6.92,77.9-2.09-1.47-3.83-2.9-4.74-3.68,1.97-2.56,3.12-5.73,3.12-9.07,0-4.55-2.11-8.8-5.57-11.59,1.49-2.84,1.3-5.32.82-6.95-.65-2.21-2.19-4.11-4.01-4.97-2.03-.95-1.92-2.33-1.91-2.47.01-.07.02-.15.01-.22-.37-5.54-3.04-10.86-4.1-12.77,7.93-5.04,12.19-10.91,12.19-17.1s-4.61-12.43-12.64-17.89c-8.47-5.75-20.51-10.13-34.04-11.26,1.7-1.84,3.89-5.65,4.65-13.37.05-.55-.35-1.04-.9-1.09-.54-.05-1.04.35-1.09.9-1.13,11.43-5.4,13.25-5.51,13.29-.05.02-.09.05-.13.08-2.85-.13-5.77-.13-8.72.05.1-3.08-.54-12.79-11.89-17.42-.51-.21-1.1.04-1.3.55-.21.51.04,1.09.55,1.3,10.69,4.37,10.81,13.41,10.65,15.71-4.22.35-8.5,1.05-12.81,2.12-1.21-2.48-5.9-9.58-20.99-13.55-.54-.14-1.08.18-1.22.71-.14.53.18,1.08.71,1.22,13.56,3.57,18.19,9.78,19.5,12.15-2.47.69-4.95,1.51-7.42,2.46-1.79-1.48-8.24-5.17-23.79.78-.52.2-.77.77-.58,1.29.15.4.53.64.93.64.12,0,.24-.02.36-.07,16.86-6.44,21.99-.95,22.08-.85,0,.01.02.01.03.02.05.05.1.09.16.13.05.04.1.08.15.1.05.03.11.03.17.05.07.02.13.04.2.04.05,0,.11-.01.16-.02.08,0,.15-.01.22-.04.01,0,.03,0,.04,0,26.3-10.42,53.45-4.63,68.69,5.72,7.47,5.08,11.76,11,11.76,16.23,0,16.44-34.49,29.81-76.88,29.81-3.21,0-6.46-.08-9.66-.24-1.95-1.43-3.8-2.97-5.56-4.61.5,0,1.05.01,1.68.01,9.74,0,34.34-1.17,55.49-11.81.49-.25.69-.85.44-1.34-.25-.49-.85-.69-1.34-.44-24.84,12.5-54.59,11.69-58.35,11.53-.16-.17-.33-.33-.49-.5,5.82-.73,22.92-4.19,39.52-20.52.39-.39.4-1.02.01-1.41-.39-.39-1.02-.4-1.41-.01-17.78,17.48-36.59,19.82-39.78,20.1-.98-1.12-1.93-2.27-2.83-3.47l-1.6-2.13c-.79-1.05-2-1.73-3.31-1.84-1.31-.11-2.62.33-3.58,1.24l-5.52,5.16c-1.75,1.64-1.96,4.4-.47,6.28l4.35,5.48c3.59,4.52,7.78,8.53,12.47,11.91l6.68,4.82c-.83,2.13-3.26,8.68-4.99,16.54-2.85,12.95-2.54,23.12.93,30.2,4.49,9.18,11.18,12.49,16.44,13.6-7.76,1.32-20.44,2.28-32.22-2.19-18.3-6.94-33.07-20.97-41.59-39.5ZM155.64,127.72c-.08-.17-.15-.34-.24-.5-.07-.12-.14-.23-.21-.34-.39-.62-.85-1.14-1.37-1.56-.05-.04-.09-.08-.14-.12-.17-.14-.35-.26-.53-.38-.06-.04-.12-.08-.18-.12-.18-.11-.36-.21-.55-.31-.06-.03-.13-.06-.19-.09-.19-.09-.37-.18-.56-.25-.06-.03-.13-.05-.2-.07-.52-.19-1.04-.35-1.55-.46-.21-.05-.41-.09-.62-.12-.05,0-.09-.01-.13-.02-1.34-.22-2.55-.24-3.31-.24h-6.67c-1.25-2.03-1.91-4.35-1.91-6.75,0-6.06,4.25-11.32,10.14-12.6,1.37.32,2.86.59,4.38.77.03,0,.05,0,.08,0,1.13.13,2.27.22,3.4.22.13,0,.26,0,.39,0,.03,0,.07,0,.11,0,4.44,2.15,7.3,6.68,7.3,11.61s-2.9,9.49-7.32,11.62c-.04-.1-.09-.18-.13-.28ZM72.19,107.14l-7.32-5.27c-4.53-3.27-8.6-7.15-12.07-11.53l-4.35-5.48c-.85-1.07-.73-2.64.27-3.58l5.52-5.16c.56-.52,1.28-.77,2.04-.7.76.07,1.43.44,1.89,1.05l1.6,2.13c1.02,1.36,2.1,2.66,3.22,3.92.04.05.07.1.12.14.65.73,1.32,1.45,2,2.15.03.04.07.08.11.11,4.24,4.32,9.06,8.01,14.43,10.98.66.37,1.12.97,1.29,1.7.17.73.04,1.48-.39,2.11l-4.63,6.78c-.41.59-1.02.99-1.73,1.11-.71.12-1.42-.04-2-.46ZM174.89,166c-7.25,6.49-17.27,5.84-20.82,5.35,1.57-3.09,2.85-6.46,3.85-10.11,2.22-.69,4.24-1.46,6.07-2.26,2.93,5.17,7.95,6.63,10.89,7.02ZM177.71,144.41c-.13.43-2.3,7.12-13.61,12.39-.02,0-.05,0-.07.02-.02.01-.04.03-.06.05-6,2.77-14.54,5.14-26.66,5.98-14.9,1.04-22.12,3.42-25.01,4.69.1-.54.18-.84.18-.85.15-.53-.15-1.08-.68-1.24-.53-.15-1.09.15-1.24.68-.03.09-.66,2.31-.57,5.86.01.54.46.97,1,.97h.03c.55-.01.99-.47.97-1.03-.02-.75,0-1.44.04-2.05,1.22-.67,7.82-3.82,25.42-5.05,7.11-.49,13.13-1.55,18.21-2.94-6.51,21.9-24.26,33-52.81,33-23.37,0-41.21-9.12-50.56-25.73,6.11,1.95,12.29,2.62,17.85,2.62,11.1,0,19.75-2.62,20.58-2.88.07-.01.13-.02.13-.02.54-.12.88-.65.77-1.19s-.65-.89-1.19-.77c-.59.13-14.64,2.9-22.3-12.76-7.01-14.33,1.97-39.52,4.01-44.83.51.19,1.05.3,1.59.3.27,0,.54-.02.81-.07,1.24-.22,2.32-.91,3.04-1.96l4.63-6.78c.74-1.08.99-2.43.68-3.7-.3-1.27-1.13-2.36-2.27-2.99-1.22-.67-2.4-1.4-3.56-2.14,2.2.07,4.4.12,6.59.12,20.92,0,40.61-3.23,55.44-9.09,3.57-1.41,6.75-2.94,9.54-4.57,1,1.83,3.46,6.78,3.81,11.78-.05.62-.02,3.01,3.05,4.45,1.3.61,2.46,2.07,2.94,3.72.32,1.09.47,2.67-.24,4.52-.21-.18-.48-.29-.77-.26-.47.05-.95.08-1.43.1,0,0,0,0,0,0-.55.02-1.13,0-1.72-.02-.13,0-.27-.01-.4-.02-.49-.03-.99-.07-1.51-.13-.12-.01-.25-.02-.37-.04-.59-.07-1.2-.17-1.82-.27-.18-.03-.35-.06-.53-.1-.6-.11-1.21-.24-1.84-.38-3.84-.9-6.78-2.1-6.83-2.12-.51-.21-1.1.03-1.31.54-.21.51.03,1.09.54,1.31.15.06,1.61.66,3.78,1.32-5.18,2.39-8.69,7.63-8.69,13.53,0,2.37.56,4.67,1.63,6.75h-1.87v2s3.6,0,3.6,0h7.12c.34,0,.67,0,.99.02.12,0,.23.01.35.02.19.01.38.02.56.04.14.01.28.03.42.04.14.02.28.03.41.05.16.02.31.04.46.07.1.02.2.04.3.05.17.03.33.07.49.1.06.02.12.03.19.05.18.05.36.1.53.15,0,0,0,0,.01,0,2.06.67,3.24,1.93,3.7,3.85,0,.01.01.02.02.03.11.46.18.96.2,1.51.11,2.27-.47,3.97-1.77,5.2-2.23,2.1-6.57,2.81-12.89,2.11-.55-.05-1.04.34-1.1.88s.34,1.04.88,1.1c1.6.18,3.1.26,4.48.26,4.59,0,7.94-.97,10-2.91,1.73-1.63,2.54-3.9,2.4-6.75-.02-.38-.07-.72-.12-1.07,1.65-.74,3.12-1.77,4.37-3.01,1.54,1.32,5.36,4.45,9.43,6.63,3.5,1.87,9.14,5.76,7.63,10.83Z"/>
      <path d="M115.69,121.36c-1.49,0-2.71,1.21-2.71,2.71s1.21,2.71,2.71,2.71,2.71-1.21,2.71-2.71-1.21-2.71-2.71-2.71Z"/>
      <circle cx="154.81" cy="116.96" r="2.71"/>
      <path d="M119.16,108.18c.93-.79,1.6-1.61,1.98-2.46.23-.5,0-1.1-.5-1.32-.5-.22-1.09,0-1.32.5-.33.73-1.09,1.63-2.63,2.63-.01,0-.03,0-.05.02-2.49,1.61-6.44,3.14-11.73,4.56-.39.1-.78.22-1.18.35-.12.04-.23.08-.35.12-.28.09-.56.19-.84.29-.14.05-.27.1-.41.15-.25.1-.51.19-.77.3-.16.06-.32.13-.48.2-.22.09-.45.19-.67.29-.21.09-.41.18-.62.28-.17.08-.33.15-.5.23-.31.14-.6.29-.9.44-.07.03-.13.07-.2.1-3.73,1.89-6.52,3.87-6.7,4-.45.32-.55.95-.23,1.4.2.27.5.42.81.42.2,0,.41-.06.58-.19.02-.01.65-.46,1.7-1.13-.43,1.54-.67,3.11-.67,4.72,0,9.8,7.97,17.77,17.77,17.77s17.77-7.97,17.77-17.77c0-6.73-3.9-12.9-9.86-15.88ZM111.25,139.83c-8.7,0-15.77-7.07-15.77-15.77,0-2.17.45-4.3,1.33-6.31,1.45-.82,3.15-1.69,4.94-2.44.04-.02.09-.04.13-.06.26-.11.53-.21.8-.31.16-.06.31-.12.47-.18.75-.28,1.51-.52,2.27-.72.63-.17,1.24-.34,1.84-.51.08-.02.15-.05.23-.07.54-.16,1.07-.32,1.58-.48.02,0,.04-.01.06-.02,3.45-1.09,6.16-2.24,8.16-3.45,5.84,2.43,9.73,8.21,9.73,14.55,0,8.69-7.07,15.77-15.77,15.77Z"/>
    </g>
  </g>
  <g>
    <g>
      <path class="st4" d="M514.4,151.13s.6,17.59,2.66,27.33c.3,1.41-.69,2.75-2.13,2.86l-3.99.31c-1.27.1-2.39-.83-2.53-2.1l-1.4-12.66v13.23c0,1.41-1.23,2.51-2.63,2.35l-3.78-.43c-1.13-.13-2-1.03-2.09-2.16l-1.03-12.92-.71,14.33c-.06,1.26-1.1,2.25-2.36,2.25h-6.26c-1.19,0-2.19-.88-2.35-2.07l-.8-6.23-1.05,5.6c-.21,1.12-1.19,1.93-2.32,1.93h-4.03c-1.31,0-2.36-1.06-2.36-2.36v-9.05l-.91-49.62h37.96l2.1,29.42Z"/>
      <path class="st4" d="M501.72,20.28c-14.47-16.59-36.85-11.67-36.85-11.67h0c-7.92-2.07-17.8-2.2-26.22,1.73-41.4,19.29-33.19,80-33.36,113.98-.14,27.61-7.82,47.19-10.7,53.55-.55,1.23.02,2.67,1.27,3.17l4.29,1.73c1.07.43,2.29.03,2.89-.95l4.56-7.37c-.71,3.82-1.39,6.89-1.83,8.74-.27,1.14.34,2.3,1.42,2.73l2.65,1.06c1.09.44,2.35,0,2.93-1.02l3.44-6.02h0c-.51,2.99-1.05,5.58-1.44,7.32-.29,1.3.55,2.58,1.86,2.83l2.66.51c.98.19,1.97-.26,2.48-1.12l2.57-4.34h0c.08,1.92.14,3.5.19,4.65.05,1.27,1.1,2.26,2.36,2.26h2.92c1.01,0,1.92-.65,2.24-1.61l1.67-4.93c.25,1.47.47,2.65.63,3.51.19.99.99,1.74,1.99,1.89l5.89.83c1.26.18,2.45-.68,2.66-1.94.58-3.54.93-9.06.93-9.06h0c1.26,5.08,2.54,8.4,3.26,10.05.34.77,1.05,1.31,1.89,1.41l3.47.41c.99.12,1.76-.84,1.43-1.78-11.16-31.82-11.98-100.67,4.14-127.5,16.47-27.42,18.72-44.64,18.72-44.64,29.89,17.06,31.34,50.35,31.34,50.35,0,0,1.98.75,3.78,2.37l.17.16c-.15-8.45,2.15-34.73-12.33-51.31Z"/>
      <path class="st5" d="M518.35,115.92h0c1.81-1.98,2.08-4.36,1.87-6.24-.27-2.42-1.24-4.11-2.84-5.13l-1.87-21.81s2.52-4.04.62-8.29c-1.66-3.71-6.04-5.38-6.04-5.38,0,0-1.46-33.29-31.34-50.35,0,0-2.25,17.22-18.72,44.64-13.48,22.44-15.11,74.28-8.76,109.26l.19,1.03c12.88,6.09,23.11.61,23.11.61,0,0,1.32-6.26,4.94-9.26,3.62-3,9.81-.99,11.03-7.24.62-3.17-.87-5.34-.88-5.35,2.6-.08,5.55-.08,8.91.05,22.47.88,26.55-7.32,27.12-10,1.35-6.35-4.86-12.1-7.34-26.52Z"/>
      <circle class="st7" cx="475.21" cy="101.91" r="18.57"/>
      <path class="st7" d="M493.69,103.72h.01s8.21,1.21,15.04,0c4.96-.88,8.44-.17,10.21,2.34,2-2.76,3.19-6.15,3.19-9.82,0-9.27-7.52-16.79-16.79-16.79-7.17,0-13.27,4.5-15.68,10.82,2.56,3.18,4.11,7.23,4.11,11.64,0,.61-.04,1.22-.1,1.82Z"/>
    </g>
    <g>
      <circle cx="478.75" cy="99.1" r="2.71"/>
      <path d="M512.8,90.98c-1.49,0-2.71,1.21-2.71,2.71s1.21,2.71,2.71,2.71,2.71-1.21,2.71-2.71-1.21-2.71-2.71-2.71Z"/>
      <path d="M524.23,131.46c-1.62-3.85-3.61-8.63-4.81-15.28,1.81-2.24,2-4.8,1.8-6.62-.15-1.35-.51-2.51-1.07-3.49,1.96-2.93,3-6.31,3-9.83,0-5.49-2.5-10.4-6.42-13.67.69-1.43,1.95-4.88.32-8.53-.5-1.12-1.22-2.06-2-2.85,0-.91,0-1.98.02-3.22.05-3.55.11-8.37-.29-13.75,0,0,0-.02,0-.03,0-.03,0-.1-.02-.19-.83-11.01-3.58-24.39-12.29-34.36-13.76-15.77-34.7-12.56-37.5-12.05-8.2-2.12-18.24-2.11-26.75,1.86-36.33,16.93-35.09,64.73-34.19,99.63.14,5.46.27,10.62.25,15.25-.14,27.06-7.46,46.18-10.61,53.14-.38.85-.4,1.79-.06,2.65.34.86,1.01,1.52,1.86,1.87l4.29,1.73c.41.17.84.25,1.26.25,1.14,0,2.23-.58,2.86-1.6l1.65-2.66c-.28,1.31-.54,2.42-.74,3.27-.39,1.63.46,3.27,2.03,3.89l2.65,1.06c.4.16.82.24,1.24.24,1.18,0,2.32-.62,2.93-1.69l.46-.81c-.11.5-.21.97-.3,1.4-.2.89-.03,1.81.47,2.57.5.77,1.28,1.28,2.18,1.46l2.66.51c.21.04.42.06.63.06,1.17,0,2.29-.62,2.9-1.65l.85-1.43c.02.48.04.91.05,1.27.08,1.8,1.55,3.21,3.36,3.21h2.92c1.44,0,2.72-.92,3.19-2.29l.44-1.3c.35,1.28,1.43,2.25,2.76,2.44l5.89.83c.16.02.31.03.47.03,1.61,0,3.05-1.17,3.32-2.8.18-1.11.34-2.4.48-3.66.71,2.18,1.35,3.82,1.82,4.88.48,1.1,1.51,1.86,2.69,2l3.46.41c.09.01.19.02.28.02.71,0,1.38-.32,1.83-.88.51-.63.65-1.47.38-2.24-1.56-4.45-2.91-9.59-4.03-15.21,4.1,1.65,7.89,2.21,11.13,2.21,5.04,0,8.76-1.35,10.32-2.03v4.89c0,1.86,1.51,3.36,3.36,3.36h4.03c1.44,0,2.7-.91,3.17-2.23v.06c.22,1.68,1.66,2.94,3.35,2.94h6.26c1.8,0,3.27-1.4,3.36-3.2v-.3c.49,1.08,1.5,1.86,2.72,2l3.78.43c.95.1,1.91-.2,2.62-.83.48-.43.82-.98.99-1.58.64,1.05,1.83,1.7,3.14,1.6l3.99-.31c.96-.08,1.85-.56,2.43-1.33.58-.78.8-1.78.6-2.73-1.77-8.37-2.46-22.84-2.61-26.36,2.05-.59,3.86-1.34,5.41-2.25,4.46-2.6,5.56-5.76,5.82-6.99.76-3.57-.65-6.93-2.44-11.19ZM521.15,96.24c0,2.9-.79,5.71-2.3,8.18-.16-.15-.33-.3-.51-.43-.22-.16-.46-.31-.7-.45-.01,0-.02-.02-.04-.02-.15-.09-.32-.16-.48-.24-.12-.06-.24-.11-.36-.16-.16-.06-.32-.13-.48-.18-.16-.05-.33-.1-.49-.15-.15-.04-.29-.09-.45-.12-.31-.07-.64-.13-.97-.18-.12-.02-.25-.03-.38-.04-.26-.03-.52-.05-.78-.06-.14,0-.29-.01-.44-.01-.11,0-.21-.01-.32-.01-.09,0-.2.01-.29.01-.4,0-.8.03-1.22.06-.17.01-.35.02-.52.04-.59.06-1.2.14-1.83.25-.38.07-.76.13-1.15.18-.12.02-.24.03-.36.05-.27.03-.54.06-.81.09-.14.01-.27.03-.41.04-.27.02-.54.04-.81.06-.13,0-.25.02-.38.03-.36.02-.71.04-1.07.05-.03,0-.06,0-.1,0-.38.01-.75.02-1.12.02-.14,0-.28,0-.42,0-.23,0-.47,0-.69,0-.15,0-.3,0-.45,0-.22,0-.43,0-.64-.02-.14,0-.29,0-.43-.01-.24,0-.48-.02-.71-.03-.16,0-.33-.02-.49-.02-.23-.01-.46-.03-.68-.04-.14,0-.27-.02-.4-.03-.16-.01-.32-.02-.48-.04-.12,0-.24-.02-.36-.03-.16-.01-.31-.03-.46-.04-.09,0-.18-.02-.27-.02-.44-.04-.81-.08-1.12-.12.02-.33.03-.64.03-.94,0-.62-.04-1.24-.09-1.85-.01-.16-.04-.31-.06-.47-.06-.47-.13-.94-.21-1.4-.03-.15-.06-.29-.09-.43-.11-.5-.23-.99-.38-1.48-.03-.09-.05-.18-.08-.26-.37-1.17-.84-2.3-1.43-3.38-.04-.08-.09-.16-.14-.24-.23-.42-.48-.83-.75-1.23-.12-.18-.24-.35-.36-.52-.12-.18-.24-.36-.37-.53,2.45-5.8,8.22-9.66,14.54-9.66,8.71,0,15.79,7.08,15.79,15.79ZM475.21,84.33c5.96,0,11.23,2.99,14.41,7.55.05.08.11.15.16.22.3.45.59.92.85,1.4.04.07.07.14.11.21.22.42.43.84.61,1.27.04.1.08.2.12.3.17.41.32.82.46,1.25.04.12.08.24.11.36.12.4.23.81.32,1.23.03.14.06.28.09.42.08.41.14.83.19,1.25.02.14.04.29.05.43.05.55.09,1.12.09,1.68,0,.5-.03.98-.07,1.47,0,.09-.01.16-.02.25,0,.02,0,.05,0,.07-.9,8.85-8.4,15.78-17.48,15.78-9.69,0-17.57-7.88-17.57-17.57s7.88-17.57,17.57-17.57ZM454.89,191.5c-.04.06-.14.15-.32.13l-3.46-.41c-.48-.06-.9-.37-1.09-.82-.77-1.76-2.02-5.04-3.24-9.97,0,0,0,0,0,0-1.46-5.91-2.86-14.19-3.32-25.15-.02-.55-.49-.98-1.04-.96-.55.02-.98.49-.96,1.04.46,11.06,1.88,19.46,3.37,25.49-.06.88-.39,5.66-.91,8.8-.12.71-.81,1.21-1.54,1.11l-5.89-.83c-.58-.08-1.04-.52-1.15-1.08-.96-4.99-4.12-23.13-4.41-47.17,0-.55-.45-.99-1-.99h-.01c-.55,0-.99.46-.99,1.01.24,20,2.46,35.96,3.77,43.74l-1.59,4.69c-.19.55-.71.93-1.29.93h-2.92c-.73,0-1.33-.57-1.36-1.3-.24-5.6-1.05-25.72-1.49-49.38-.55-29.66,5.36-87.43,30.98-115.78.37-.41.34-1.04-.07-1.41s-1.04-.34-1.41.07c-11.8,13.06-20.54,32.9-25.98,58.97-5.46,26.18-5.68,49.42-5.51,58.19.35,19.01.94,35.72,1.29,44.48l-2.42,4.08c-.29.5-.87.75-1.43.65l-2.66-.51c-.37-.07-.68-.28-.88-.59-.2-.31-.27-.68-.19-1.04.93-4.17,2.54-12.26,2.88-19.69.47-10.15.24-20.44.24-20.54-.01-.55-.49-.98-1.02-.98-.55.01-.99.47-.98,1.02,0,.1.23,10.32-.23,20.4-.18,4.01-.75,8.23-1.37,11.89l-3.36,5.87c-.33.59-1.06.84-1.69.59l-2.65-1.06c-.63-.25-.98-.92-.82-1.58.45-1.89,1.14-4.98,1.85-8.82,0,0,0,0,0,0,1.12-6.07,2.29-14.03,2.63-22.17.02-.55-.41-1.02-.96-1.04-.53-.03-1.02.41-1.04.96-.34,7.97-1.47,15.76-2.57,21.74l-4.47,7.21c-.35.57-1.05.8-1.67.55l-4.29-1.73c-.35-.14-.62-.41-.75-.76-.14-.35-.13-.73.02-1.08,3.2-7.08,10.64-26.51,10.78-53.96.02-4.67-.11-9.84-.25-15.31-.89-34.35-2.1-81.39,33.04-97.77,11.38-5.31,26.6-3.06,34.73,2.17.46.3,1.08.17,1.38-.3.3-.46.17-1.08-.3-1.38-1.55-1-3.36-1.9-5.33-2.68,7.14-.46,21.34.33,31.42,11.89,3.84,4.4,6.47,9.52,8.27,14.81-2.62-5.12-6.44-10.3-12.02-14.06-.46-.31-1.08-.19-1.39.27-.31.46-.19,1.08.27,1.39,13.85,9.34,16.42,28.68,16.66,30.81.41,5.4.35,10.23.3,13.78,0,.57-.01,1.09-.02,1.6-.79-.54-1.52-.92-2-1.14-.41-4.73-4.06-34.71-31.8-50.55-.29-.17-.64-.18-.94-.03-.3.15-.5.43-.55.76-.02.17-2.44,17.37-18.59,44.25-7.45,12.4-11.98,35.13-12.44,62.38-.42,25.03,2.72,50.31,8.21,65.97.05.16-.01.27-.06.33ZM516.08,178.66c.08.39,0,.8-.24,1.12-.24.32-.58.51-.98.54l-3.99.31c-.75.05-1.38-.47-1.46-1.21l-1.4-12.66c-.06-.53-.53-.95-1.05-.89-.53.03-.95.47-.95,1v13.23c0,.39-.16.75-.46,1.02-.29.26-.68.39-1.06.34l-3.78-.43c-.65-.07-1.16-.6-1.21-1.25l-1.03-12.92c-.04-.52-.48-.92-1-.92h-.01c-.53,0-.96.42-.98.95l-.71,14.33c-.04.73-.63,1.3-1.36,1.3h-6.26c-.69,0-1.27-.51-1.35-1.19l-.79-6.23c-.06-.49-.47-.86-.96-.87-.49,0-.92.33-1.01.82l-1.05,5.6c-.12.65-.69,1.11-1.34,1.11h-4.03c-.75,0-1.36-.61-1.36-1.36v-8.3c.69-1.97,1.94-4.71,3.9-6.34,1.17-.97,2.71-1.35,4.33-1.75,2.88-.71,6.15-1.52,7.04-6.06.37-1.92.06-3.49-.32-4.58,2.2-.04,4.63-.02,7.33.09,5.79.23,10.77-.13,14.92-1.05.18,4.17.87,17.94,2.63,26.28ZM524.71,142.23c-.36,1.7-3.31,10.1-26.1,9.21-22.64-.89-27.67,3.91-27.87,4.12-.38.39-.38,1,0,1.39.19.2.45.3.71.3s.5-.09.69-.27c.04-.04,3.45-3.04,16.93-3.57.34.71.85,2.19.47,4.13-.64,3.29-2.81,3.82-5.55,4.5-1.77.44-3.61.89-5.13,2.16-2.03,1.68-3.37,4.25-4.19,6.34-.26.18-.43.46-.43.8v.39c-.26.77-.44,1.4-.54,1.81-1.92.86-10.71,4.21-21.37-.62-6.49-35.22-4.5-87.34,8.54-109.06,13.87-23.09,17.7-38.83,18.61-43.56,27.85,16.78,29.59,48.48,29.6,48.8.02.4.27.75.64.89.04.02,4.02,1.58,5.48,4.86,1.17,2.63.41,5.21-.14,6.51-1.85-1.21-3.93-2.1-6.17-2.55,0,0,0,0-.01,0-7.2-1.09-9.23-2.06-9.29-2.09-.48-.25-1.08-.07-1.34.41-.26.49-.08,1.09.41,1.35.1.05.6.3,1.85.66-4.8,1.38-8.89,4.74-11.13,9.3-2.44-2.57-5.56-4.47-9.07-5.42,1.77-.47,2.43-.79,2.54-.85.48-.26.66-.85.41-1.34-.25-.49-.86-.68-1.34-.43-.02,0-2.01.99-9.29,2.09-.04,0-.08.03-.12.04-9.52,1.32-16.87,9.49-16.87,19.37,0,10.79,8.78,19.57,19.57,19.57,9.8,0,17.91-7.24,19.33-16.65.16.02.34.04.54.06.03,0,.05,0,.08,0,.2.02.41.04.64.06.04,0,.09,0,.13.01.22.02.46.04.71.06.06,0,.11,0,.17.01.25.02.5.04.77.06.07,0,.13,0,.2.01.27.02.54.03.83.05.08,0,.16,0,.24.01.28.01.57.03.87.04.09,0,.18,0,.27,0,.29,0,.59.01.9.02.1,0,.2,0,.3,0,.3,0,.61,0,.93,0,.11,0,.21,0,.32,0,.31,0,.63-.01.95-.02.11,0,.22,0,.33,0,.32-.01.65-.03.97-.05.11,0,.22-.01.33-.02.33-.02.66-.05.99-.08.11,0,.22-.02.33-.03.34-.03.69-.08,1.03-.12.09-.01.19-.02.28-.03.43-.06.87-.12,1.29-.2.53-.09,1.04-.17,1.53-.22.15-.02.29-.03.43-.04.35-.03.69-.06,1.01-.07.14,0,.27,0,.41,0,.34,0,.68,0,.99.03.09,0,.17,0,.26.02,1.26.11,2.32.42,3.16.92,0,0,0,0,0,0,.24.15.46.32.66.49.09.07.17.15.25.23.16.16.31.33.44.51.61.83,1,1.88,1.15,3.22.17,1.55.01,3.77-1.72,5.57-2.53,2.63-7.81,3.73-15.28,3.21-.54-.05-1.03.38-1.07.93s.38,1.03.93,1.07c1.28.09,2.5.14,3.65.14,5.33,0,9.32-.97,11.96-2.88,1.25,6.2,3.14,10.74,4.69,14.43,1.72,4.08,2.96,7.04,2.33,10Z"/>
      <path d="M434.04,36.37c-.15.21-14.65,21.91-16.76,62.67-.03.55.4,1.02.95,1.05.02,0,.04,0,.05,0,.53,0,.97-.41,1-.95,1.08-20.98,5.49-36.62,9-46.05,3.8-10.22,7.38-15.54,7.42-15.59.31-.46.19-1.08-.26-1.39-.46-.31-1.08-.19-1.39.26Z"/>
    </g>
  </g>
  <g>
    <path class="st8" d="M360.66,140c8.79-1.03,20.48-5.84,19.66-26.83-1.24-31.54-19.57-50.41-19.57-50.41l-23.13-4.94,9.42,84.21,13.62-2.02Z"/>
    <path class="st5" d="M374.39,119.88c0-4.76-2.34-8.96-5.92-11.56h0c-2.3-3.19-5.88-5.39-9.98-5.85v-.1c-.03-21.28-5.08-27.92-5.08-27.92l1.42-13.81h-100.76v70.87l-10.61-3.3v13.98s3.34,18.41,18.9,16.43h0c-.35,11.31-4.64,16.4-4.64,16.4,0,0,4.24,7.97,18.12,14.09,13.88,6.12,21.2,3.06,21.2,3.06.49-3.41.68-6.12,3.74-8.35,3.06-2.24,5.29-.47,9.4-1.88,4.1-1.41,4.5-6.9,4.5-6.91,3.01.58,6.39,1.42,10.15,2.61,21.06,6.7,24.71,2.12,25.18,0,.47-2.12-1.76-3.53-3.53-5.18-1.76-1.65-1.2-4.95-1.2-4.95v-.02c1.52-.3,3.01-.76,4.43-1.46,10.15-4.95,13.95-18.57,9.54-31.91h0c.29,0,.58.03.87.03,7.88,0,14.27-6.39,14.27-14.27Z"/>
    <path class="st8" d="M362.26,46.69c-3.34-35.53-48.43-43.94-77.18-37.12-51.82,12.3-89.87,77.57-76.55,116,6.33,18.27,35.41,18.47,35.41,18.47l-.11-1.71c4.9,1.9,12.06,2.9,21.9.25v-.07c3.77,2.26,8.46,4.27,14.29,5.65,0,0-12.88-18.23,0-60.82,6.27-1.23,14.47-4.58,19.41-13.47,0,0,1.21,8.88-5.13,15.29,0,0,30.5-1.94,41.19-21.54h.02s.98,6.07-2.54,16.48c0,0,32.48-3.47,29.29-37.41Z"/>
    <path class="st3" d="M297.03,118.88c0-7.96,5.64-14.61,13.14-16.16-1.09-.23-2.21-.35-3.37-.35-9.12,0-16.51,7.39-16.51,16.51,0,.25.03.5.04.75l-.02-.14-15.87,1.76v5.24l16.74-2.28v-.08c2.18,6.54,8.35,11.26,15.63,11.26,1.15,0,2.28-.12,3.37-.35-7.5-1.55-13.14-8.2-13.14-16.16Z"/>
    <circle class="st7" cx="313.54" cy="118.88" r="16.51"/>
    <path class="st10" d="M294.48,100.41c.59.96,1.58,2.56,2.41,3.8.36.54,1.08.66,1.6.28,2.18-1.61,8.21-5.64,18.02-8.99.65-.22.96-.95.65-1.56-.62-1.22-1.81-3.16-3.72-4.56-.29-.21-.66-.26-1-.14-2.15.73-10.32,3.74-17.71,9.73-.43.35-.54.98-.25,1.46Z"/>
    <path class="st10" d="M357.87,90.59c-2.78-1.03-5.99-1.99-9.43-2.61-.55-.1-1.09.23-1.26.77-.34,1.07-.9,2.87-1.31,4.3-.17.62.21,1.25.84,1.39,1.92.43,6.14,1.58,11.72,4.18-.09-3-.29-5.67-.56-8.03Z"/>
    <path class="st2" d="M336.99,7.4c-6.26-3.31-15.65,9.61-15.65,9.61-1-.82-2.23-1.31-3.56-1.31-1.51,0-2.88.63-3.95,1.65,0,0,0,0,0,0-3.2-5.14-10.68-8.4-15.76-7.18-6.26,1.5-3.91,25.85,5.13,26.91,6.06.71,9.87-3.59,11.43-8.57h0c.92.64,2,1.01,3.15,1.01,1.8,0,3.41-.89,4.52-2.3,5.01,4.76,11.59,8.77,15.22,5.62,3.97-3.44,5.74-22.15-.53-25.45Z"/>
    <path class="st7" d="M360.12,105.61c-6.82,0-12.52,4.79-13.93,11.18,10.73,9.65,12.97,17.04,13.05,17.32.29.02.58.04.88.04,7.88,0,14.27-6.39,14.27-14.27s-6.39-14.27-14.27-14.27Z"/>
    <path class="st3" d="M339.73,114.32h0s0,0,0,0c1.14.02,2.16.16,3.04.36,0,.05-.01.11-.02.16l1.5.26c.68.57,1.32,1.14,1.95,1.7.07-.29.14-.58.22-.87l.61-1.72v.04c2.17-5.08,7.22-8.64,13.1-8.64,3.12,0,6,1.01,8.35,2.71-2.59-3.6-6.81-5.95-11.58-5.95-5.49,0-10.24,3.1-12.63,7.64,0,0,0,0,0,0,0,0-.01,0-.01,0-6.72-2.51-16.06,1.27-16.06,1.27l1.76,5.9c3.74-2.27,7.09-2.91,9.77-2.87ZM344.94,115.36c.35.14.64.28.87.4-.22-.11-.52-.25-.87-.4Z"/>
    <g>
      <path d="M313.4,117.17c-1.49,0-2.71,1.21-2.71,2.71s1.21,2.71,2.71,2.71,2.71-1.21,2.71-2.71-1.21-2.71-2.71-2.71Z"/>
      <circle cx="363.19" cy="119.35" r="2.71"/>
      <path d="M381.32,113.13c-1.14-29.03-16.81-47.69-19.46-50.65,1.38-4.4,2-9.63,1.41-15.88-1.27-13.5-8.67-24.36-21.39-31.46-.41-3.17-1.51-7.1-4.41-8.62-3.26-1.72-7.06.19-10.25,2.78-13.29-3.58-29.09-3.85-42.35-.7-26.56,6.3-51.68,26.95-67.21,55.24-12.3,22.4-15.96,45.02-10.05,62.07,5.98,17.25,30.74,18.95,35.56,19.12,1.11,3.55,3.76,9.72,9.38,12.86,2.27,1.27,4.78,1.9,7.52,1.9.41,0,.83-.04,1.24-.07-.57,9.97-4.3,14.61-4.34,14.66-.26.31-.31.75-.12,1.11.18.34,4.56,8.35,18.6,14.54,7.08,3.12,12.51,3.92,16.21,3.92s5.62-.78,5.78-.85c.32-.14.55-.43.6-.78l.09-.67c.42-3.01.73-5.18,3.25-7.02,1.44-1.05,2.61-1.06,4.23-1.06,1.38,0,2.93,0,4.91-.68,3.49-1.2,4.64-4.8,5.01-6.66,2.72.56,5.71,1.32,9.02,2.37,7.46,2.37,13.42,3.56,17.82,3.56,2.66,0,4.75-.43,6.26-1.3,1.71-.98,2.22-2.3,2.38-2.99.52-2.33-1.3-3.91-2.9-5.3-.31-.27-.62-.54-.92-.82-.88-.82-1.01-2.39-.96-3.39,1.35-.32,2.67-.79,3.95-1.41,8.73-4.25,13.1-14.63,11.64-26.09,13.4-1.99,20.16-11.54,19.53-27.71ZM336.53,8.29c1.7.9,2.89,3.45,3.36,7.17-.06.24-.03.48.08.69.68,6.8-1.1,14.22-3.1,15.95-2.94,2.55-8.65-.82-13.25-5,0,0,0,0,0,0,.19-.3.35-.62.5-.95.02-.05.04-.1.07-.15.27-.64.47-1.33.58-2.06.01-.08.02-.15.03-.23.04-.35.07-.71.07-1.08,0-1.95-.64-3.73-1.68-5.11-.03-.04-.07-.08-.1-.12-.12-.15-.24-.3-.37-.44-.01-.01-.02-.03-.04-.04,2.88-3.7,9.66-10.83,13.85-8.62ZM322.78,23.67s0,.04,0,.07c-.06.34-.14.68-.25,1,0,.01,0,.03-.01.04-.11.33-.25.65-.41.96,0,0,0,0,0,0-.17.31-.36.6-.58.88,0,0,0,0,0,0-.93,1.17-2.26,1.92-3.74,1.92-.68,0-1.35-.16-1.98-.47.02-.07.03-.15.05-.22.12-.45.21-.91.3-1.38.02-.11.04-.23.06-.34.08-.51.14-1.01.18-1.52,0-.07,0-.14.01-.21.03-.53.05-1.06.03-1.58,0-.05,0-.09,0-.14-.02-.54-.06-1.07-.14-1.6-.05-.37-.14-.74-.23-1.11-.03-.11-.06-.22-.1-.34-.08-.27-.17-.53-.27-.79-.04-.11-.08-.23-.13-.34-.13-.31-.27-.61-.43-.91.8-.57,1.72-.88,2.66-.88,1.08,0,2.09.4,2.91,1.07,0,0,0,0,0,.01.84.69,1.47,1.65,1.83,2.73,0,.02.01.05.02.07.06.18.11.37.15.56,0,.04.02.09.03.13.04.17.06.35.08.53,0,.05.01.1.02.15.02.22.04.45.04.67,0,.35-.03.7-.08,1.05ZM313.16,18.2c.03.06.07.12.1.18.14.26.27.52.39.78.03.07.06.14.09.21.11.26.19.52.27.78.02.07.05.15.07.22.09.33.16.65.21.98.31,2.13.09,4.55-.61,6.82-.65,2.08-1.69,3.98-3.03,5.36-1.99,2.04-4.46,2.9-7.34,2.57-4.45-.52-7.29-8.19-7.71-15.13-.31-5.24.82-9.37,2.69-9.81.64-.15,1.33-.23,2.06-.23,2.7,0,5.85,1.03,8.55,2.86,1.86,1.26,3.31,2.79,4.25,4.42ZM228.85,140.69c-7.11-2.07-16.24-6.42-19.37-15.44-5.64-16.27-1.93-38.87,9.92-60.45,15.26-27.8,39.91-48.08,65.92-54.26,12.53-2.97,27.37-2.82,40.08.35-1.91,1.82-3.44,3.67-4.28,4.74-1-.6-2.14-.94-3.34-.94-1.33,0-2.62.42-3.74,1.2-1.03-1.38-2.37-2.66-4.01-3.78-3.87-2.62-8.66-3.77-12.2-2.92-3.58.86-4.53,6.7-4.22,11.88.46,7.71,3.62,16.32,9.47,17,.48.06.94.08,1.41.08,2.91,0,5.52-1.11,7.6-3.24,1.29-1.33,2.34-3.06,3.08-4.97.83.37,1.71.58,2.61.58,1.75,0,3.35-.72,4.59-1.89,4.54,4.13,8.74,6.31,12.01,6.31,1.48,0,2.76-.44,3.8-1.34,2.72-2.35,4.15-9.91,3.89-16.05,11.41,6.77,18.04,16.83,19.2,29.22.58,6.16-.04,11.28-1.42,15.54-.03.06-.04.12-.06.19-1.54,4.65-4.01,8.26-6.83,11.06-.05.03-.1.04-.15.07-.13.1-.22.22-.29.36-6.49,6.17-14.69,8.24-18.1,8.86,2.62-8.45,2.27-13.78,2.12-15.1.81-1.51,1.49-3.08,2.03-4.71.17-.52-.12-1.09-.64-1.26-.53-.17-1.09.12-1.26.64-6.39,19.59-31.89,24.41-39.96,25.46,4.72-6.37,3.77-13.82,3.72-14.17-.06-.43-.38-.77-.81-.85-.42-.08-.85.12-1.06.5-6.43,11.57-18.79,13.4-24.31,13.61,6.38-5.76,5.57-12.92,5.53-13.25-.07-.55-.57-.93-1.11-.87-.55.07-.94.57-.87,1.11.04.32.85,7.9-6.98,13.14-.35.24-.52.67-.41,1.08s.46.71.88.75c.08,0,3.12.26,7.34-.4-9.93,33.98-3.57,52.16-.64,58.04-20.83-5.82-25.55-20.26-25.6-20.41-.16-.53-.72-.82-1.25-.66-.53.16-.82.72-.66,1.25.15.48,2.79,8.64,12.79,15.38-2.14.48-4.13.77-5.99.92-.07-.01-.14-.03-.21-.03-.09,0-.17.04-.26.07-5.38.37-9.59-.48-12.77-1.73-.13-.1-.28-.16-.44-.18-5.1-2.12-7.4-5.21-7.58-5.45-.32-.45-.94-.55-1.39-.23-.45.32-.55.95-.23,1.39.19.27,2.71,3.66,8.19,6.02,0,.02,0,.04.01.06-2.45-.13-7.92-.61-13.74-2.3ZM313.54,134.39c-1.58,0-3.11-.24-4.55-.68-.13-.04-.25-.09-.37-.13-.33-.11-.66-.23-.98-.36-.15-.06-.3-.14-.46-.21-.28-.13-.56-.26-.83-.4-.17-.09-.33-.18-.49-.27-.24-.14-.49-.29-.72-.44-.17-.11-.34-.23-.51-.34-.21-.15-.41-.3-.61-.46-.18-.14-.36-.28-.53-.43-.17-.14-.33-.29-.49-.44-.19-.18-.38-.35-.56-.54-.11-.11-.2-.23-.31-.34-.76-.83-1.44-1.75-2.01-2.73-.03-.05-.06-.09-.08-.13-.17-.29-.32-.6-.46-.9-.06-.12-.11-.23-.17-.35-.13-.28-.24-.56-.35-.85-.06-.16-.12-.32-.18-.48-.09-.26-.18-.53-.25-.8-.06-.2-.11-.41-.16-.62-.06-.24-.12-.49-.16-.73-.05-.27-.09-.54-.13-.82-.03-.2-.06-.39-.08-.59-.05-.48-.07-.97-.07-1.47s.03-.98.07-1.47c.02-.2.05-.39.08-.59.04-.27.07-.55.12-.82.05-.25.1-.49.16-.74.05-.21.1-.41.16-.61.08-.27.16-.54.25-.81.05-.16.11-.32.17-.47.11-.29.23-.58.35-.86.05-.11.11-.22.16-.34.15-.31.3-.62.47-.91.02-.04.05-.07.07-.11.57-.99,1.26-1.92,2.04-2.76.1-.11.19-.22.29-.32.18-.19.38-.37.57-.55.16-.14.31-.29.47-.43.18-.15.36-.29.54-.44.2-.15.4-.3.6-.45.17-.12.34-.24.52-.35.23-.15.47-.29.71-.43.16-.09.33-.19.5-.28.27-.14.55-.27.82-.4.15-.07.31-.14.46-.21.32-.13.65-.25.97-.36.13-.04.25-.09.38-.13,1.44-.44,2.97-.68,4.55-.68,8.55,0,15.51,6.96,15.51,15.51s-6.96,15.51-15.51,15.51ZM305.28,134.31c-7.84-.77-13.98-7.4-13.98-15.43s6.14-14.66,13.98-15.43c-.02,0-.03.02-.04.03-.05.03-.1.06-.16.09-.38.21-.75.44-1.12.68-.13.09-.27.18-.4.27-.31.22-.61.44-.91.68-.13.1-.25.2-.38.3-.31.26-.61.54-.91.83-.17.16-.32.33-.48.49-.17.18-.33.36-.5.54-.24.27-.46.55-.69.83-.17.23-.35.45-.51.68-.16.23-.31.47-.47.72-.1.16-.2.32-.29.48-.15.25-.29.5-.42.75-.09.18-.17.36-.26.54-.2.41-.38.82-.54,1.25-.09.22-.17.45-.25.67-.08.23-.15.46-.22.69-.12.4-.22.81-.31,1.22-.03.16-.06.32-.09.49-.07.39-.13.78-.18,1.17-.02.16-.04.31-.05.47-.05.52-.08,1.04-.08,1.57s.03,1.05.08,1.57c.01.16.03.32.05.47.05.39.11.78.18,1.17.03.17.06.34.1.5.09.41.19.81.31,1.2.07.23.15.47.22.7.08.22.16.44.24.66.17.45.36.88.57,1.31.08.16.15.32.23.48.14.26.28.51.43.77.09.16.19.31.28.46.15.24.31.49.47.73.14.2.29.39.44.58.24.32.5.63.76.93.16.18.32.36.49.54.16.17.32.34.49.5.29.28.59.55.9.82.13.11.26.21.39.31.29.23.59.46.9.68.13.09.26.18.4.27.36.24.74.47,1.12.68.05.03.1.06.15.09.02,0,.03.02.04.03ZM289.39,120.6c.09.95.28,1.87.52,2.77l-14.46,1.98v-3.19l13.95-1.55ZM297.72,103.66c-.84-1.26-1.85-2.9-2.39-3.77-.03-.05-.02-.12.02-.16,7.2-5.84,15.14-8.79,17.49-9.55,1.71,1.26,2.81,2.98,3.43,4.3,0,.03-.03.06-.08.08-9.96,3.4-16.11,7.52-18.3,9.13-.04.03-.07.03-.17-.03ZM329.56,111.85c2.49-.84,9.18-2.75,14.21-.95.05.04.11.08.16.12.04.03.09.07.14.1.07.05.14.11.21.17.06.05.12.1.18.16.06.06.13.12.2.18.07.06.13.13.2.19.06.06.12.13.18.2.07.07.13.14.2.22.06.07.11.14.16.21.06.07.12.15.17.22.06.08.1.16.15.25.04.07.08.13.12.2.06.13.11.25.14.37,0,.02.02.04.02.07.04.14.05.28.04.42l-.02.05c-.08.2-.15.4-.22.6-2.3-1.06-7.92-2.79-15.07.98-.25-1.31-.64-2.57-1.17-3.76ZM360.12,133.15s-.1,0-.15,0c-.79-2.09-3.76-8.58-12.67-16.7.03-.12.07-.23.11-.35l.42-1.18c1.59-3.9,4.97-6.84,9.01-7.89,0,0,0,0,0,0,.32-.08.64-.15.96-.21.05,0,.1-.02.15-.03.29-.05.58-.08.87-.11.07,0,.14-.02.21-.02.35-.03.71-.05,1.07-.05.41,0,.82.02,1.22.06.13.01.26.03.39.05.28.03.55.08.82.13.15.03.29.05.43.09.26.06.51.12.76.2.14.04.28.07.41.12.35.11.69.24,1.02.37.2.08.4.18.59.27.14.07.29.13.43.21.22.11.43.23.64.36.11.06.21.13.32.19.22.14.44.28.65.43.6.43,1.16.89,1.68,1.41l.02.02c2.4,2.4,3.88,5.72,3.88,9.37,0,7.32-5.95,13.27-13.27,13.27ZM362.2,104.77c-.19-.03-.38-.06-.58-.08-.5-.05-1-.08-1.51-.08-.41,0-.81.02-1.21.05-.09,0-.18.02-.27.03-.36.04-.73.08-1.08.14-.03,0-.05,0-.08.01-4.2.74-7.9,3.19-10.21,6.78-.13-.19-.27-.38-.41-.55,0,0,0-.01-.01-.02-.43-.53-.91-.98-1.29-1.3,2.4-3.96,6.67-6.38,11.34-6.38,2.16,0,4.25.53,6.12,1.51-.27-.05-.54-.08-.81-.12ZM356.98,91.75c.07.7.14,1.42.19,2.15.01.19.03.38.04.57.06.82.11,1.66.15,2.51,0,.02,0,.04,0,.06-4.9-2.15-8.59-3.16-10.44-3.57-.04,0-.06-.03-.09-.15.41-1.48.99-3.31,1.29-4.27.02-.05.07-.09.12-.09,0,0,.01,0,.02,0,2.81.5,5.73,1.29,8.68,2.35.02.15.03.29.05.44ZM348.62,87c-1.05-.19-2.07.43-2.39,1.45-.31.97-.89,2.83-1.31,4.34-.16.56-.08,1.15.22,1.65.3.5.79.86,1.36.98,1.88.43,5.77,1.5,10.96,3.86.02.69.03,1.4.04,2.13-.2,0-.39-.04-.59-.04-5.4,0-10.35,2.83-13.1,7.45-5.78-1.73-12.81.4-15.16,1.23-3.04-5.18-8.66-8.68-15.09-8.68h-6.73s0,0,0,0c-.53,0-1.04.03-1.56.08,2.95-1.59,6.81-3.38,11.58-5.01.59-.2,1.05-.64,1.29-1.21.23-.57.21-1.2-.07-1.75-.72-1.42-2-3.43-4.02-4.92-.54-.4-1.26-.51-1.92-.29-2.34.79-10.56,3.85-18.02,9.9-.82.67-1.02,1.85-.47,2.76h0c.54.88,1.57,2.54,2.42,3.83.05.08.11.14.17.21-4.13,3.15-6.82,8.07-6.91,13.63l-13.97,1.55c.19-8.32,1.6-18.96,5.49-31.99,5.66-1.22,12.67-4.12,17.63-10.9-.24,3.01-1.26,7.56-4.86,11.2-.29.29-.37.74-.2,1.12.16.36.52.59.91.59.02,0,.04,0,.06,0,.37-.02,9.11-.61,18.98-4.2,9.56-3.48,16.75-8.6,21.26-15.04-.1,2.72-.64,7.12-2.59,12.86-.11.32-.05.68.17.95.19.24.48.38.78.38.04,0,.07,0,.11,0,.19-.02,11.32-1.36,20.06-9.14.85,1.64,2.53,5.65,3.54,13.16-2.73-.93-5.44-1.65-8.06-2.12ZM349.27,165.13c-9.08,4.43-21.24-.04-28.9-10.61-.32-.45-.95-.55-1.4-.22-.45.32-.55.95-.22,1.4,6.13,8.45,14.69,13.19,22.81,13.19.89,0,1.76-.06,2.64-.18,0,1.3.26,3.23,1.6,4.49.32.29.65.58.97.87,1.57,1.36,2.5,2.27,2.26,3.36-.1.46-.43,1.12-1.42,1.69-1.97,1.13-7.51,2.33-22.47-2.43-13.78-4.38-22.6-4.09-26.67-3.52.26-.23.45-.35.48-.37.46-.3.6-.91.31-1.38-.3-.47-.91-.61-1.38-.31-.15.1-3.75,2.42-3.01,6.58.09.49.51.83.98.83.06,0,.12,0,.17-.02.54-.1.91-.61.81-1.16-.12-.69-.06-1.3.1-1.85,1.54-.36,7.1-1.33,16.62.36-.29,1.46-1.18,4.28-3.69,5.14-1.66.57-2.98.57-4.26.58-1.69,0-3.43,0-5.4,1.44-3.2,2.34-3.59,5.13-4.05,8.36v.04c-1.87.5-8.68,1.73-19.9-3.21-11.34-5-16.11-11.3-17.32-13.12,1.11-1.63,3.95-6.63,4.39-15.59,1.72-.29,3.5-.77,5.36-1.5.51-.2.77-.78.57-1.3-.2-.51-.78-.77-1.3-.57-5.64,2.21-10.49,2.22-14.42.03-5.22-2.91-7.64-9.02-8.58-12.17,0-.06-.02-.11-.03-.16,2.6.84,5.7,1.41,9.4,1.41.64,0,1.31-.02,1.99-.06.45,2.21,1.95,5.34,5.48,5.97.06.01.12.02.18.02.48,0,.9-.34.98-.82.1-.54-.27-1.06-.81-1.16-2.57-.46-3.49-2.77-3.81-4.15,2.26-.23,4.71-.68,7.34-1.36,3.77,2.19,8.42,4.14,14.15,5.5.08.02.15.03.23.03.33,0,.64-.16.83-.44.23-.34.23-.8,0-1.14-.03-.04-3.15-4.59-4.69-14.2-.28-1.76-.52-3.78-.67-6.04l15.04-2.05c2.57,6.48,8.89,11.09,16.27,11.09,0,0,0,0,0,0h6.73c9.65,0,17.51-7.85,17.51-17.51,0-.38-.03-.75-.06-1.12,5.65-3.22,10.23-2.62,12.73-1.8.63.53,1.23,1.06,1.81,1.58.61.55,1.2,1.1,1.75,1.63.07.07.14.13.2.2.48.46.94.92,1.38,1.37.16.16.32.33.47.49.33.34.65.68.95,1.02,6.47,7.09,7.98,12.09,8.01,12.19,4.34,13.12.54,26.03-9.03,30.69ZM361.49,138.86c-.23-1.24-.54-2.48-.91-3.73,8.21-.25,14.81-6.98,14.81-15.25,0-4.07-1.61-7.76-4.21-10.5-.02-.03-.03-.06-.05-.08l-3.73-3.74c-.05-.05-.12-.08-.18-.12-2.16-1.99-4.84-3.32-7.73-3.82-.02-2.6-.11-4.98-.26-7.15,0-.05,0-.1-.01-.15-.05-.64-.1-1.27-.15-1.88,0-.02,0-.04,0-.06-.99-10.93-3.41-16.12-4.42-17.85,2.57-2.61,4.84-5.86,6.44-9.89,3.87,4.58,17.2,22.16,18.23,48.56.6,15.2-5.41,23.81-17.83,25.65Z"/>
    </g>
  </g>
</svg>